<?xml version="1.0" encoding="UTF-8"?>
<!DOCTYPE svg PUBLIC "-//W3C//DTD SVG 1.1//EN" "http://www.w3.org/Graphics/SVG/1.1/DTD/svg11.dtd">
<!-- Creator: CorelDRAW (Evaluation Version) -->
<svg xmlns="http://www.w3.org/2000/svg" xml:space="preserve" width="200mm" height="200mm" version="1.1" style="shape-rendering:geometricPrecision; text-rendering:geometricPrecision; image-rendering:optimizeQuality; fill-rule:evenodd; clip-rule:evenodd"
viewBox="0 0 20000 20000"
 xmlns:xlink="http://www.w3.org/1999/xlink"
 xmlns:xodm="http://www.corel.com/coreldraw/odm/2003">
 <defs>
  <style type="text/css">
   <![CDATA[
    .str0 {stroke:#57A7B3;stroke-width:7.62;stroke-miterlimit:22.9256}
    .fil8 {fill:#010F2B}
    .fil1 {fill:#010F2B}
    .fil6 {fill:#046A38}
    .fil0 {fill:#5D87FF}
    .fil7 {fill:#FF671F}
    .fil5 {fill:white}
    .fil3 {fill:#010F2B;fill-rule:nonzero}
    .fil2 {fill:#5D87FF;fill-rule:nonzero}
    .fil4 {fill:#5D87FF;fill-rule:nonzero}
    .fil9 {fill:white;fill-rule:nonzero}
   ]]>
  </style>
 </defs>
 <g id="Layer_x0020_1">
  <metadata id="CorelCorpID_0Corel-Layer"/>
  <path class="fil0" d="M9404.02 1595.98c4645.59,0 8411.63,3766.04 8411.63,8411.63 0,4645.59 -3766.04,8411.63 -8411.63,8411.63 -4645.59,0 -8411.62,-3766.04 -8411.62,-8411.63 0,-4645.59 3766.03,-8411.63 8411.62,-8411.63zm5847.21 2564.42c-1496.43,-1496.42 -3563.74,-2421.98 -5847.21,-2421.98 -2283.48,0 -4350.79,925.56 -5847.2,2421.98 -1496.42,1496.41 -2421.99,3563.73 -2421.99,5847.21 0,2283.48 925.57,4350.79 2421.99,5847.21 1496.41,1496.42 3563.72,2421.98 5847.2,2421.98 2283.48,0 4350.8,-925.57 5847.21,-2421.98 1496.42,-1496.42 2421.98,-3563.73 2421.98,-5847.21 0,-2283.47 -925.55,-4350.78 -2421.98,-5847.21z"/>
  <path class="fil1" d="M9404.02 1726.74c4573.38,0 8280.88,3707.49 8280.88,8280.87 0,4573.38 -3707.5,8280.87 -8280.88,8280.87 -4573.38,0 -8280.87,-3707.49 -8280.87,-8280.87 0,-4573.38 3707.49,-8280.87 8280.87,-8280.87zm0 1525.42c3730.92,0 6755.45,3024.53 6755.45,6755.45 0,3730.92 -3024.53,6755.45 -6755.45,6755.45 -3730.92,0 -6755.45,-3024.53 -6755.45,-6755.45 0,-3730.92 3024.53,-6755.45 6755.45,-6755.45z"/>
  <path class="fil2" d="M9404.02 3252.16c1865.45,0 3554.32,756.14 4776.82,1978.64 1222.49,1222.49 1978.63,2911.37 1978.63,4776.81 0,1865.44 -756.14,3554.32 -1978.63,4776.81 -1222.5,1222.5 -2911.37,1978.64 -4776.82,1978.64 -1865.44,0 -3554.31,-756.14 -4776.81,-1978.64 -1222.49,-1222.49 -1978.64,-2911.37 -1978.64,-4776.81 0,-1865.44 756.15,-3554.32 1978.64,-4776.81 1222.5,-1222.5 2911.37,-1978.64 4776.81,-1978.64zm4643.89 2111.56c-1188.46,-1188.45 -2830.34,-1923.55 -4643.89,-1923.55 -1813.55,0 -3455.42,735.1 -4643.89,1923.55 -1188.45,1188.47 -1923.55,2830.34 -1923.55,4643.89 0,1813.55 735.1,3455.42 1923.55,4643.89 1188.47,1188.45 2830.34,1923.55 4643.89,1923.55 1813.55,0 3455.43,-735.1 4643.89,-1923.55 1188.45,-1188.47 1923.55,-2830.34 1923.55,-4643.89 0,-1813.55 -735.1,-3455.42 -1923.55,-4643.89z"/>
  <path id="I004" class="fil3" d="M6902.61 13553.07l0 361.62 -169.52 0c-20.02,-93.71 -51.54,-163.13 -94.98,-207.43 -43.02,-44.72 -99.67,-66.87 -169.53,-66.87 -131.61,0 -230.85,63.04 -298.14,189.11 -67.73,126.07 -101.38,313.06 -101.38,560.95 0,230.44 31.09,404.64 92.43,523.47 61.76,118.41 152.06,177.62 270.89,177.62 60.91,0 110.32,-10.22 148.65,-30.67 37.91,-20.44 68.58,-50.69 91.58,-91.58 23,-40.89 42.59,-97.96 59.2,-172.07l170.8 0 0 377.8c-91.15,21.73 -175.05,37.49 -250.44,47.7 -75.82,9.8 -154.62,14.92 -235.97,14.92 -172.94,0 -314.34,-31.1 -423.8,-93.71 -109.47,-62.19 -189.97,-156.74 -241.93,-282.39 -51.97,-126.08 -77.95,-285.81 -77.95,-478.75 0,-180.59 30.67,-337.34 91.58,-471.09 61.33,-133.31 151.2,-236.39 270.03,-308.8 119.27,-72.41 261.53,-108.61 426.79,-108.61 84.33,0 160.15,4.68 228.3,13.64 68.57,9.37 139.7,24.27 213.39,45.14zm632.37 1684.57c-122.24,0 -227.87,-21.31 -316.46,-64.32 -88.59,-43.02 -157.59,-111.6 -207.85,-205.73 -49.84,-94.56 -74.54,-214.66 -74.54,-360.34 0,-111.16 15.33,-207.85 46,-289.2 30.66,-81.78 73.68,-149.08 128.63,-202.32 54.94,-53.25 120.11,-92.43 196.35,-117.99 76.25,-25.13 158.87,-37.9 247.9,-37.9 201.04,0 353.09,52.81 455.31,158.87 102.23,106.05 153.34,261.52 153.34,466.39 0,144.4 -25.13,265.78 -75.82,363.75 -50.68,97.54 -123.09,170.37 -217.22,217.65 -94.13,47.28 -205.72,71.14 -335.64,71.14zm-219.78 -657.64c0,176.33 20.02,308.37 59.21,396.11 39.61,87.74 99.24,131.61 179.32,131.61 43.87,0 80.92,-11.07 110.31,-33.64 29.4,-22.58 53.25,-54.95 71.13,-97.12 17.89,-42.59 30.67,-93.7 37.91,-152.91 7.67,-59.63 11.5,-126.5 11.5,-200.61 0,-178.47 -20.01,-312.21 -59.2,-400.8 -39.61,-88.6 -97.96,-132.89 -175.49,-132.89 -56.64,0 -101.79,17.89 -135.87,53.66 -34.07,35.35 -59.2,89.02 -74.96,160.58 -15.76,71.55 -23.86,163.56 -23.86,276.01z"/>
  <path id="I005" class="fil4 str0" d="M8827.09 15217.61l-655.08 0 0 -82.2c31.1,-8.52 55.37,-17.46 73.26,-26.84 17.89,-9.79 31.09,-23 39.61,-40.03 8.95,-17.04 14.48,-38.76 17.04,-64.75 2.55,-26.4 3.83,-59.63 3.83,-99.24l0 -1075.9c0,-39.18 -1.28,-71.98 -3.41,-98.39 -1.7,-26.83 -7.24,-48.13 -16.18,-65.17 -8.52,-16.6 -21.72,-29.81 -39.61,-40.47 -17.89,-10.21 -42.59,-19.58 -74.54,-28.1l0 -82.21 727.49 0c98.39,0 181.88,6.81 250.45,20.44 68.57,14.06 128.63,34.93 180.17,63.05 43.45,23.42 80.07,52.81 109.88,88.17 29.82,35.34 52.82,76.66 69.01,123.51 16.61,46.85 24.7,101.81 24.7,163.99 0,81.35 -14.48,151.63 -43.02,209.56 -28.97,58.35 -67.72,106.91 -116.28,145.66 -48.55,38.34 -113.72,74.97 -195.07,109.04l0 12.35c61.33,26.84 112.44,62.19 152.48,106.91 40.46,44.3 77.09,100.95 109.46,169.1l78.37 169.52c34.93,75.82 69.87,132.47 104.36,170.37 34.5,37.91 75.39,60.91 123.09,69.43l0 82.2 -480.45 0c-48.55,-66.44 -103.07,-165.69 -163.56,-296.87l-97.54 -213.39c-28.96,-63.47 -54.08,-108.18 -74.53,-135.03 -20.87,-26.4 -42.59,-44.71 -64.31,-54.94 -22.16,-9.8 -56.23,-14.9 -101.8,-14.9l-72.41 0 0 402.07c0,62.19 2.98,106.06 8.52,130.76 5.96,25.13 17.46,45.15 34.07,60.06 16.61,14.9 47.28,28.11 92,40.04l0 82.2zm-134.59 -1554.65l0 693.41 123.52 0c66.45,0 121.38,-8.94 164.83,-26.4 43.02,-17.89 77.52,-43.01 102.65,-74.96 25.56,-31.95 43.03,-69.86 52.39,-112.87 9.8,-43.45 14.48,-90.73 14.48,-142.27 0,-113.29 -26.41,-198.05 -79.65,-254.7 -53.24,-56.65 -132.46,-84.76 -237.24,-84.76 -71.56,0 -118.41,0.86 -140.98,2.55zm2818.69 279.41c11.5,-38.33 21.72,-76.67 29.81,-115.42 8.52,-38.76 12.35,-71.98 12.35,-99.25 0,-43.45 -10.22,-74.96 -31.52,-95.4 -21.29,-20.46 -53.24,-32.38 -95.4,-35.78l0 -82.21 520.06 0 0 82.21c-30.67,6.81 -56.23,18.74 -77.09,35.78 -20.88,17.03 -39.62,40.89 -56.23,71.55 -16.62,31.09 -37.48,82.64 -62.61,155.04l-467.67 1367.67 -296.88 0 -282.39 -1171.74 -334.35 1171.74 -311.79 0 -375.67 -1397.91c-18.32,-68.15 -34.51,-115.43 -48.55,-142.26 -14.48,-26.41 -30.24,-46.43 -47.71,-59.63 -17.46,-13.63 -39.18,-23.43 -66.02,-30.24l0 -82.21 671.27 0 0 82.21c-43.02,5.11 -74.96,17.04 -95.84,36.2 -20.87,19.17 -31.52,46.43 -31.52,81.36 0,43.87 12.35,112.44 36.21,205.72l215.95 867.2 358.2 -1272.69 281.97 0 292.19 1272.69 263.23 -844.63zm991.4 747.52l-532.85 0 -40.88 118.41c-11.94,33.21 -21.3,65.59 -28.96,96.68 -7.25,31.1 -11.08,64.31 -11.08,99.24 0,81.35 43.02,125.23 129.91,131.19l0 82.2 -532.84 0 0 -82.2c30.66,-3.41 57.5,-14.48 80.92,-32.8 23.44,-18.31 44.3,-43.01 63.47,-74.53 19.16,-31.95 39.6,-77.1 61.33,-136.31l520.49 -1386.41 333.07 0 411.89 1397.91c18.31,62.2 33.64,106.48 45.99,132.89 12.36,25.99 28.54,47.29 48.57,63.47 20.01,16.19 48.12,28.12 83.9,35.78l0 82.2 -689.16 0 0 -82.2c43.45,-5.11 75.39,-17.04 96.26,-36.2 20.88,-19.17 31.1,-46.43 31.1,-81.36 0,-25.56 -2.99,-54.52 -8.52,-86.04 -5.96,-31.52 -15.34,-71.56 -28.97,-119.68l-33.64 -122.24zm-485.14 -146.11l448.94 0 -199.34 -702.35 -249.6 702.35z"/>
  <path class="fil5" d="M1749.69 13142.23c9096.3,-2462.67 16396.58,3794.68 17242.71,-2251.51 0,-871.67 0,-1754.78 0,-2626.45 -3.83,7.87 -8.09,15 -11.95,22.83 -908.8,6000.53 -8375.5,-448.37 -17608.4,2285.07 -70.71,28.79 -141.27,58.4 -211.69,88.9 68.19,872.03 271.58,1706.07 589.33,2481.16z"/>
  <path class="fil6" d="M1749.69 13142.23c9096.3,-2462.67 16396.58,3794.68 17242.71,-2251.51l0 -933.83c-855.28,6111.54 -8304.87,-348.2 -17538.17,2334.14 83.32,290.6 182.09,574.66 295.46,851.2z"/>
  <path class="fil7" d="M1264.79 11475.8c9320.67,-2827.37 16866.49,3762.69 17727.61,-2390.57l0 -871.68c-864.4,6176.71 -8464.32,-488.24 -17834.02,2422.28 21.36,284.24 57.04,564.47 106.41,839.97z"/>
  <polygon class="fil8" points="10926.08,7837.71 10936.72,7526.32 10596.56,7517.68 10448.59,7719.17 10545.67,7722.32 10546.06,8429.66 10408.73,8195.07 8093.47,9567.63 8607.48,9524.04 10525.59,9805.84 12180.29,7961.61 14198.03,9784.95 12195.65,6902.68 "/>
  <path class="fil8" d="M8260.64 8046.25l-18.9 -789.35 -386.51 -10.04 -167 131.67 149.52 -4.42 5.73 537.05 -1221.08 -805.89 -2012.37 2695.51 2067.74 -1822.42 1191.43 1512.74c111.37,-22.48 556.68,-302.15 714.04,-393.55 224.31,-130.31 474.99,-278.88 693.49,-421.14l-1016.09 -630.16z"/>
  <path class="fil0" d="M6657.24 9227.8l323.37 0 0 328.44 -323.37 0 0 -328.44zm0 -419.45l323.37 0 0 328.43 -323.37 0 0 -328.43zm-414.39 0l323.38 0 0 328.43 -323.38 0 0 -328.43zm0 419.45l323.38 0 0 328.44 -323.38 0 0 -328.44z"/>
  <path class="fil0" d="M12091.35 9216.7l323.37 0 0 328.44 -323.37 0 0 -328.44zm0 -419.45l323.37 0 0 328.44 -323.37 0 0 -328.44zm-414.39 0l323.38 0 0 328.44 -323.38 0 0 -328.44zm0 419.45l323.38 0 0 328.44 -323.38 0 0 -328.44z"/>
  <polygon class="fil0" points="8536.54,6323.59 9330.41,6799.26 9334.78,8417.93 9630.29,8412.97 9634.36,3926.47 10148.39,4157.4 9637.11,3626.22 8542.97,4436.23 "/>
  <polygon class="fil0" points="9854.21,5504.38 9855.24,7931.66 10501.85,7403.44 10839.03,7402.64 10849.65,5176.27 11444.67,5455.99 10846.33,4763.5 "/>
  <polygon class="fil0" points="7523.62,6761.99 8047.86,6524.35 8054.46,7109.96 8483.98,7126.36 8493.73,7917.18 9098.76,8261.05 9097.87,6813.75 8056.4,6232.46 "/>
  <polygon class="fil0" points="9856.13,8037.66 9846.21,8337.72 10234.27,8120.85 10247.7,7800.08 "/>
  <path class="fil9" d="M3466.21 14491.38c71.75,27.08 123.02,57.17 151.63,93.51 33.8,42.89 21.17,66.62 1.46,82.15 -26.67,21.01 -65.38,19.55 -109.6,-6.36 -39.33,-34.8 -82.84,-66.59 -128.61,-95.68l-13.56 5.05 -43.84 127.23c49.28,27.57 87.49,55.4 109.72,83.62 30.75,39.04 25.59,70.66 -3.98,93.95 -55.65,43.83 -137.81,14.28 -176.17,-34.41 -74.58,-94.69 -43.7,-197 23.67,-357.17l-60.79 -19.13 -5.94 2.8c-97.58,208.08 -123.71,376.47 -33.28,491.26 68.2,86.58 176.89,102.11 254.77,40.76 15.27,-12.03 27.04,-24.12 37.7,-37.22l5.4 3.27c3.25,33.14 19.45,73.61 43.05,103.57 5.78,7.34 9.44,11.98 16.38,18.41l-190.17 146.98 45.2 110.65 11.89 3.16 500.37 -397.61 77.64 98.56 17.06 -0.6 46.85 -99.55 -220.42 -279.82 -16.67 0.3 -47.25 99.84 69.58 88.32 -177.59 139.9c-38.81,-15.48 -73.11,-37.94 -98.38,-70.02 -18.72,-23.77 -35.7,-48.92 -33.07,-66.64 3.95,-15.64 6.8,-30.72 7.71,-45.85 39.85,-0.7 74.02,-11.01 98.94,-30.64 36.14,-28.47 57.84,-63.73 73.46,-117.06 25.31,-86.34 20.77,-146.96 -31.44,-213.24 -34.86,-44.25 -87.61,-75.04 -150.14,-92.8l-9.94 4.07 -41.64 126.44zm504.36 539.35l316.95 303.91 -69.64 72.63c-40.14,-64.41 -77.32,-110.95 -112.65,-144.84 -108.31,-103.85 -214.64,-96.05 -280.53,-27.33 -27.41,28.58 -49.94,74.12 -57.13,145.95 -8.61,95.7 18.84,168.03 74.42,221.32 32.31,30.99 72.47,54.5 124.24,67.34l-105.48 105.73 60.11 103.31 12.39 1.65 440.21 -463.35 90.56 86.84 16.81 -2.97 32.77 -104.9 -493.45 -473.16 -16.47 2.6 -33.11 105.27zm136.51 494.22c-22.98,23.97 -45.87,27.93 -76.53,25.44 -56.5,-5.43 -101.85,-27.79 -138.25,-62.69 -53.63,-51.42 -56.1,-94.7 -29.2,-122.75 48.01,-50.07 132.06,-49.22 216.76,32 29.13,27.92 51.62,55.63 70.13,83.25l-42.91 44.75zm347.52 -30.09l54.52 52.27 -425.91 440.26 59.61 104.19 12.2 1.48 440.39 -463.18 90.56 86.83 16.81 -2.96 32.6 -105.08 -231.37 -221.85 -16.47 2.61 -32.94 105.43zm576.31 462.68l-133.58 187.25c-33.04,-12.99 -70.54,-33.7 -112.6,-63.7 -34.64,-24.71 -62.84,-50.86 -87.61,-76.7 15.4,-16.52 29.86,-35.51 46.15,-58.34 28.58,-40.05 55.26,-85.08 79.16,-137.23l208.48 148.72zm-430.57 -307.16l130.77 93.3c-11.48,26.25 -28.82,56.49 -50.68,87.13 -21.43,30.04 -43.52,55.08 -64.24,71.42 -12.28,-11.17 -33.82,-29.27 -46.84,-38.55 -39.85,-28.43 -80.25,-13.74 -103.54,18.91 -16.71,23.43 -28.15,67.85 -30.46,134.2 -4.82,128.32 22.49,268.38 67.28,412.73l8.61 6.14 114.06 -66.7c-59.29,-106.66 -98.12,-201.76 -110.52,-282.21 31.71,-1.26 74.92,-1.25 109.52,-13.74 27.25,51.18 74.56,100.93 114.41,129.36 27.04,19.29 53.52,36.37 81.5,51.8l-147.87 200.93 74.24 93.76 12.5 -0.16 368.76 -522.01 102.13 72.86 16.22 -5.35 17.29 -108.54 -629.64 -449.17 -15.93 4.96 -17.57 108.93zm619.63 442.03l61.48 43.86 -357.94 497.09 74.01 94.5 12.29 -0.29 368.97 -521.87 102.13 72.86 16.2 -5.35 17.11 -108.68 -75.51 -53.86c25.79,-68.34 40.76,-135.92 41.01,-204.04 -1.34,-126.07 -42.97,-210.46 -112.27,-259.89 -79.5,-56.71 -167.81,-49 -216.81,19.69 -24.43,34.25 -38.61,79.13 -35.41,130.98l60.6 101.85 18.39 -7.13c-4.72,-40.84 3.55,-75.73 22.42,-102.16 32.28,-45.27 87.07,-55.14 136.94,-19.57 81.1,57.86 73.98,151.31 -5.79,275.41l-94.53 -67.44 -15.92 4.95 -17.37 109.09zm528.98 348.48l352.93 178.13 -47.99 95.09c-49,-48.15 -93.45,-78.57 -133.2,-98.63 -100.37,-50.66 -206.17,-28.28 -253.62,65.71 -23.27,46.12 -22.28,104.77 -8.19,160.38 21.96,70.05 48.81,125.49 116.9,159.86 37.99,19.17 78.77,28.46 123.15,20.25l0.97 1.34 -76.11 142.62 84.74 79.98 12.34 -2.05 127.92 -256.19c82.53,-34.68 160.14,-48.14 206.26,-24.86 22.62,11.42 26.52,27.17 14.44,51.1 -25.05,49.63 -102.36,100.72 -192.18,141.64l58.4 121.8 9 4.54c80.8,-39.42 149.88,-98.24 182.8,-163.46 24.05,-47.66 30.32,-101.54 13.48,-160.47 -13.78,-51.87 -41.79,-90.26 -89.89,-114.53 -31.41,-15.86 -77.92,-23.07 -122.18,-15.1l-1.31 -2.32 77.93 -154.39 330.08 166.61 15.21 -7.76 0.64 -109.9 -787.77 -397.6 -14.78 7.43 0.03 110.78zm222.13 440.58c-75.58,26.34 -139.27,24.79 -188.69,-0.16 -43.05,-21.72 -60.32,-51.38 -42.8,-86.09 31.81,-63.03 108.82,-92.77 216.21,-38.56 21.75,10.97 43.37,24.37 59.5,37.18l-44.22 87.63zm1427.92 461c-10.93,39.09 -30.98,60.56 -59.2,72.85 -44.69,19.17 -91.93,20.01 -134.81,8.02 -71.08,-19.88 -113.72,-60.15 -109.91,-130.36 88.26,13.19 172.42,-12.83 191.97,-82.72 10.2,-36.49 9.88,-81.02 -6.87,-135.26l179.58 50.21 -60.76 217.26zm-865.11 -476.16l663.84 185.63c7.96,22.66 9.11,39.59 5.4,52.86 -14.51,51.88 -76.58,60.07 -162.17,47.37 -23.51,-28.28 -51.28,-49.59 -87.28,-59.65 -30.57,-8.55 -63.54,-1.17 -95.17,16.04 -37.11,-54.57 -82.79,-94.93 -140.59,-111.1 -91.89,-24.92 -187.1,18.7 -219.3,133.84 -40.81,145.94 48.81,334.23 170.01,447.06l10.01 -1.04 64.39 -98.73c-122.42,-82 -176.92,-157.52 -151.67,-247.79 22.39,-80.07 98.17,-126.32 166.4,-107.24 15.16,4.23 30.33,12.06 43,22.5 -33.45,31.01 -62.79,66.49 -89.41,103.23l77.73 96.58 8.29 2.32c56.99,-75.01 115.49,-139.88 178.04,-122.39 8.3,2.32 16.11,4.5 22.65,7.62 25.91,172.25 92.83,283.7 220.76,319.47 42.65,11.92 81.89,13.19 119.27,1.93l-47.76 159.83 101.7 62.93 11.7 -4.39 169.27 -616.31 120.83 33.8 13.42 -10.55 -20.65 -107.96 -1160.17 -324.43 -13.3 10.08 20.76 108.49zm1148.1 321.05l72.73 20.34 -167.57 589.19 101.74 63.7 11.45 -4.46 169.52 -616.23 120.83 33.78 13.42 -10.54 -20.89 -108.02 -308.7 -86.33 -13.29 10.08 20.76 108.49zm586.99 116.45l-21.27 176.59c-14.69,121.87 -73.7,157.13 -127.92,150.6 -47.63,-5.74 -68.58,-49.89 -54.21,-169.08 5.97,-49.58 13.39,-111.13 23.16,-179.83l180.24 21.72zm-371.97 -44.82l70.1 8.45c-9.5,66.49 -15.48,116.08 -20.39,156.86 -15.74,130.67 14.25,186.07 55.72,234.67 41.57,47.64 96.14,76.02 154.52,83.06 66.43,8 179.05,-7.42 200.73,-187.43l28.53 -236.66 118.69 14.3 -75.99 608.08 110.27 47.23 10.66 -6.16 73.76 -634.84 124.57 15 11.66 -12.47 -37.08 -103.58 -850.92 -102.53 -11.6 11.98 36.77 104.04zm1673.81 124.52l7.34 229.9c-34.16,9.7 -76.53,15.98 -128.17,17.63 -42.53,1.35 -80.81,-2.35 -116.17,-7.87 2.23,-22.48 2.21,-46.34 1.31,-74.37 -1.57,-49.18 -7.65,-101.16 -20.26,-157.13l255.95 -8.16zm-528.63 16.85l160.55 -5.11c6.79,27.83 11.34,62.4 12.55,100.02 1.17,36.88 -1.21,70.18 -7.78,95.75 -16.53,-1.45 -44.64,-2.77 -60.62,-2.26 -48.93,1.56 -72.14,37.74 -70.86,77.82 0.91,28.77 18.75,71.03 57.15,125.18 73.98,104.96 180.63,199.76 303.78,287.39l10.57 -0.33 50.26 -122.21c-111.84,-48.85 -200.37,-100.93 -259.03,-157.38 24.46,-20.23 58.82,-46.42 78.76,-77.34 52.7,24.17 120.49,35.05 169.41,33.49 33.2,-1.06 64.62,-3.54 96.23,-8.24l4.26 249.44 115.89 29.53 9.84 -7.7 -23.32 -638.69 125.39 -4.01 9.65 -14.08 -52.06 -96.79 -773.04 24.65 -9.66 13.6 52.08 97.27zm298.9 -290.11l101.74 95.45 95.46 -101.74 -101.75 -95.45 -95.45 101.74zm480.03 278.49l58.13 -7c-2.61,15.43 -3.99,28.72 -2.51,40.94 8.18,67.89 47.98,108.19 137.46,159.86 -9.46,26.4 -11.26,48.43 -8.93,67.72 4.73,39.33 28.94,77.78 66.3,110.2 73.67,66.46 141.68,88 206.89,80.14 34.44,-4.16 69.8,-17.09 109.37,-44.4l14.16 140.02 117.57 19.53 8.88 -8.51 -79.15 -634.2 124.57 -15.01 8.36 -14.88 -60.61 -91.81 -752.51 90.68 -8.17 14.36 60.19 92.36zm539.2 185.29c6.74,55.92 -16.63,96.4 -66.6,127.95 -34.41,20.75 -63.12,31.39 -88.03,34.39 -43.07,4.45 -72.94,-2.85 -77.42,-39.98 -6.21,-51.53 36.57,-99.55 145.95,-143.95l3.63 -6.88 -95.82 -95.99c-54.57,24.16 -93.13,47.64 -122.39,70 -31.72,-4.11 -53.78,-24.74 -57.4,-54.78 -4.83,-40.06 15.49,-99.75 121.49,-112.52l206.87 -24.92 29.72 246.68zm201.32 -274.53l74.99 -9.04 70.59 608.48 118.37 19.94 8.88 -8.51 -79.15 -634.2 124.56 -15.01 8.37 -14.88 -60.62 -91.81 -119.18 14.35c-145.27,-234.98 -211.14,-341.52 -355.48,-324.13 -52.28,6.3 -100.76,19.33 -145.84,37.89l70.65 127.77 2.68 -0.32c39.44,-16.15 82.83,-30.3 136.56,-36.78 103.8,-12.5 146.89,69.52 216.2,204.64l-123.83 14.92 -8.43 14.4 60.68 92.29zm97.96 -316.08l109.74 86.14 86.14 -109.75 -109.75 -86.13 -86.13 109.74zm492.26 241.56l372.86 -131.39 35.4 100.46c-68.67,2.03 -121.38,13.05 -163.38,27.84 -106.04,37.37 -163.13,129.22 -128.14,228.53 17.18,48.72 60.18,88.6 110.07,116.92 65.76,32.65 124.35,51.65 196.28,26.3 40.14,-14.15 75.07,-37.15 99.87,-74.84l1.64 0.21 50.24 153.66 116.38 -5.8 7.05 -10.32 -96.33 -269.65c32.11,-83.57 76.12,-148.9 124.85,-166.06 23.89,-8.43 37.95,-0.34 46.87,24.94 18.47,52.44 1.83,143.6 -30.82,236.74l128.33 42.16 9.51 -3.34c27.48,-85.59 32.85,-176.17 8.57,-245.08 -17.74,-50.34 -52.3,-92.17 -106.47,-120.81 -46.97,-25.96 -94.07,-32.32 -144.89,-14.41 -33.18,11.69 -70.58,40.26 -95.47,77.73l-2.58 -0.66 -57.47 -163.11 348.73 -122.9 4.93 -16.33 -78.88 -76.54 -832.25 293.28 -4.87 15.8 79.97 76.67zm471.71 144.68c-33.3,72.77 -78.52,117.66 -130.72,136.06 -45.47,16.03 -78.84,7.96 -91.76,-28.7 -23.47,-66.59 8.39,-142.75 121.84,-182.74 22.97,-8.1 47.61,-14.42 68.02,-17.2l32.62 92.58zm347.32 -433.3l71.24 -25.11 201.04 578.63 119.86 -6.24 6.83 -10.24 -214.98 -601.88 118.33 -41.7 4.94 -16.34 -79.11 -76.46 -302.33 106.54 -5.1 15.88 79.28 76.92zm1254.82 -617.22l163.23 -95.16 306.35 530.73 116.43 -28.89 4.78 -11.33 -324.29 -550.75 108.38 -63.19 1.77 -16.98 -92.06 -60.23 -574.21 334.85 -2.02 16.55 92.31 60.64 97.12 -56.63 113.89 195.3c-20.71,36.28 -47.72,67.12 -83,87.7 -26.13,15.23 -53.39,28.57 -70.58,23.5 -14.94,-6.09 -29.48,-11 -44.34,-14.01 4.84,-39.57 -0.62,-74.83 -16.6,-102.23 -23.18,-39.75 -55.09,-66.13 -105.73,-89.01 -81.99,-37.04 -142.65,-40.97 -215.53,1.53 -48.68,28.38 -86.48,76.35 -112.76,135.8l2.65 10.42 119.44 58.79c36.79,-67.31 73.69,-113.89 113.65,-137.19 47.17,-27.51 68.92,-11.71 81.56,9.97 17.1,29.33 10.29,67.46 -21.52,107.66 -39.91,34.1 -77.44,72.78 -112.6,114.07l3.12 14.14 119.91 61.07c34.14,-44.97 67.01,-78.95 98.04,-97.04 42.93,-25.03 73.53,-15.54 92.48,16.98 35.69,61.2 -4.97,138.46 -58.53,169.68 -104.13,60.73 -201.16,15.93 -350.43,-73.02l-27.38 57.54 1.95 6.27c192.51,125.52 355.65,174.78 481.88,101.17 95.21,-55.52 125.68,-161 75.74,-246.64 -9.79,-16.79 -20.12,-30.13 -31.62,-42.51l3.99 -4.89c33.26,1.39 75.6,-9.04 108.53,-28.25 8.08,-4.71 13.18,-7.68 20.5,-13.67l119.16 208.74 115.86 -29.4 4.99 -11.46 -324.51 -550.62zm-7.58 -320.2l134.91 35.52 35.52 -134.91 -134.91 -35.53 -35.52 134.92zm363.33 111l303.79 -239.3 52.37 66.49c12.17,15.45 11.83,25.74 -3.44,37.77l-57.58 45.36c-156.53,123.3 -135.58,233 -78.03,306.06 52.05,66.09 134.22,89.68 202.63,96.22 75.14,5.96 151.6,-9.5 218.27,-62.02 36.33,-28.62 66.81,-65.47 89.81,-114.59 31.82,3.44 55.93,17.33 72.37,38.2 27.31,35.48 24.02,91.32 -0.63,160.21l154.51 1.36 4.06 -3.2c21.57,-62.08 16.56,-127.66 -20.59,-174.81 -41.85,-53.15 -102.56,-68.59 -188.18,-76.3 10.96,-50.9 5.98,-94.58 -20.36,-128.02 -38.82,-49.28 -113.56,-67.44 -168.05,-24.51 -44.64,35.16 -59.09,90.38 -21.95,137.54 16.9,21.45 36.03,33 57.38,39.04 -11.08,37.22 -36.05,73.49 -74.7,103.94 -55.85,43.99 -125.07,36.83 -170.43,-20.76 -48.26,-61.26 -38.82,-151.06 110.75,-268.88l65.13 -51.31 -0.94 -18.66 -129.06 -162.65 116.53 -91.8 -0.41 -17.2 -99.54 -46.87 -513.65 404.63 0.29 16.67 99.65 47.39zm503.42 -396.55l59.32 -46.74 376.93 482.87 111.44 -44.57 3.16 -11.89 -397.6 -500.38 98.55 -77.63 -0.6 -17.07 -99.54 -46.85 -94.31 74.28c-246.33,-125.08 -358.02,-181.77 -472.22,-91.81 -41.36,32.59 -75.99,68.94 -104.82,108.25l126.81 72.35 2.13 -1.68c25.27,-34.31 54.96,-68.97 97.47,-102.46 82.14,-64.7 161.62,-17.08 291.12,62.24l-97.99 77.18 0.3 16.68 99.85 47.23zm195.85 -157.52l409.29 -386.75 60.14 63.66c-49.69,64.9 -75.27,120.55 -86.43,170.7 -80.13,8.35 -127.7,16.75 -175.79,62.19 -68.69,65.93 -80.34,170.01 1.61,256.74 103.74,109.78 311.63,130.29 470.76,84.85l4.25 -9.1 -51.98 -106.24c-132.97,62.36 -225.94,70 -290.32,1.88 -56.77,-60.08 -57.22,-148.67 -5.9,-197.16 15.01,-14.2 30.56,-22.11 44.79,-26.76 2.57,38.18 19.25,81.99 46.53,126.62l114.49 -18.16 7.33 -6.92c-48.35,-93.08 -57.95,-147.31 3.44,-249.98l276.15 295.47 106.13 -54.59 2.26 -12.29 -441.1 -462.51 91.19 -86.17 -2.13 -16.93 -103.16 -37.91 -587.02 554.69 1.8 16.59 103.67 38.08zm613.27 -597.57l270.35 -343.2 127.16 100.16c-60.19,58.12 -107.6,108.78 -145.05,156.32 -117.36,148.98 -49.28,216.41 -34.59,227.97 23.58,18.57 65.63,26.02 123.83,20.51 58.85,-5.94 95.18,-18.66 110.86,-38.57 9.28,-11.79 13.95,-25.65 13.82,-42.98 -0.41,-22.55 -13.42,-36.24 -32.74,-51.47 -14.68,-11.57 -36.2,-26 -66.19,-43.99 9.16,-23.16 31.43,-56.99 56.85,-89.25 20.85,-26.48 37.11,-45.92 60.25,-70.92l265.75 214.04 96.72 -69.12 0.29 -12.3 -503.74 -393.36 77.64 -98.56 -4.57 -16.45 -107.75 -22.23 -421.06 534.51 4.19 16.15 107.98 22.74z"/>
  <path class="fil9" d="M2374.8 8934.82c5.12,-1.34 12.63,-1.87 22.52,-1.59 9.88,0.25 15.13,-2.05 15.75,-6.94 0.75,-5.84 -2.47,-15.69 -9.64,-29.48 -12.88,-23.47 -18.29,-39.54 -16.19,-48.2l133.22 28.84c-0.86,6.83 -5.56,34.01 -14.08,81.53 -8.52,47.53 -14.7,86.42 -18.54,116.68 -28.62,22.15 -56.43,45.9 -83.46,71.23 -21.4,20.09 -47.5,46.03 -78.33,77.83l-41.55 -0.82c-13.06,-6.62 -19.44,-18.83 -19.16,-36.65 -1.24,9.76 -7.91,19.33 -20.01,28.7 -24.41,-3.1 -77.02,-12.52 -157.84,-28.25 -80.84,-15.73 -138.33,-25.76 -172.5,-30.1 -39.04,-4.96 -74.43,-7.47 -106.17,-7.54 -18.39,-19.2 -30.02,-33.08 -34.88,-41.63 -11.55,-18.33 -14.03,-34.02 -7.41,-47.07 -2.93,-0.37 -5.85,-0.73 -8.79,-1.1 -17.58,5.69 -27.59,6.41 -30.02,2.13 -2.56,-3.31 -16.86,-27.44 -42.88,-72.41 -7.29,-12.83 -16.42,-26.88 -27.36,-42.17l50.58 -35.23 -33.48 -5.74 28.83 -133.22c8.79,1.12 40.6,6.4 95.44,15.84 54.85,9.46 99.83,16.41 134.98,20.88l-11.21 111.65c-21.47,-2.73 -44.67,-3.69 -69.57,-2.89 -22.1,2.15 -44.61,3.76 -67.57,4.8 13.52,18.59 28.42,37.84 44.74,57.77 16.32,19.93 31.48,37.23 45.49,51.9 8.78,1.13 31.79,-0.42 69.02,-4.61 16.11,-1.92 29.55,-2.2 40.28,-0.84 10.25,5.27 14.18,17.18 11.83,35.74 1.73,-5.74 4.6,-10.83 8.64,-15.28 4.03,-4.45 9.29,-8.74 15.76,-12.88 30.26,3.86 75.23,13.04 134.87,27.56 59.67,14.52 104.62,23.71 134.88,27.55 15.41,-11.92 31.24,-25.28 47.49,-40.09 16.27,-14.79 29.06,-27.55 38.35,-38.27 -0.24,-5.98 -1.19,-14.04 -2.88,-24.17 -3.49,-19.29 -4.87,-31.87 -4.13,-37.72 1,-7.81 2.65,-13.06 4.98,-15.74zm14427.53 -843.45c10.16,-3.91 17.11,-6.4 20.9,-7.47 3.79,-1.07 4.46,-2.29 2.04,-3.65 -19.85,-15.85 -38.75,-30.17 -56.71,-42.96 -17.96,-12.81 -35.84,-25.37 -53.66,-37.7 -31.24,8.87 -108.12,35.31 -230.65,79.31 -53.84,19.38 -99.69,34.44 -137.55,45.2 -7.42,-0.98 -14.86,-5.5 -22.27,-13.62 -3.24,-4.2 -5.53,-8.67 -6.88,-13.4 0.66,13.11 -3.62,25.07 -12.83,35.87 -33.26,5.35 -66.51,10.7 -99.77,16.06 13.1,6.51 33.56,13.74 61.39,21.69 27.84,7.94 48.44,15.65 61.81,23.11 5.67,5.54 9.98,13.53 12.94,23.94 1.34,4.73 2.41,12.11 3.2,22.11 3.14,-14.2 10.72,-27.08 22.78,-38.69 34.07,-9.68 86.13,-20.88 156.17,-33.61 70.03,-12.73 122.09,-23.93 156.17,-33.61l84.38 -27.04 20.9 -7.46 17.64 -8.08zm-657.24 89.97c6.1,-10.93 9.55,-18.56 10.37,-22.88 -1.49,-1.62 -2.36,-2.91 -2.63,-3.86 -1.89,0.54 -6.21,3.3 -12.98,8.29 -14.21,4.04 -24.8,-6.26 -31.79,-30.87 -2.41,-8.52 -5.1,-21.57 -8.06,-39.14 -2.93,-17.57 -5.22,-29.21 -6.83,-34.89 34.08,-9.67 84.59,-28.11 151.55,-55.31 66.95,-27.19 117.94,-45.76 152.96,-55.71 15.54,0.7 26.81,9.78 33.81,27.22 -2.28,-11.63 0.92,-23.79 9.59,-36.48 23.66,-6.72 59.83,-14.42 108.51,-23.14 86.66,-15.4 146.09,-27.68 178.27,-36.82 71.98,40.94 149.1,78.36 231.36,112.29l-36.85 91.79c3.79,-1.08 9.33,-3.17 16.63,-6.26 9.47,-2.69 16.92,-1.73 22.31,2.88 2.15,7.56 6.52,28.32 13.08,62.26 2.15,7.56 4.56,19.66 7.23,36.31 -109.65,20.91 -208.96,43.99 -297.93,69.25 -24.62,6.99 -59.51,21.01 -104.69,42.02 -45.18,21.01 -79.61,34.88 -103.27,41.6 -16.49,-0.44 -28.1,-8.9 -34.83,-25.4 1.59,12.83 -1.73,24.53 -9.99,35.05 -11.36,3.23 -28.46,6.04 -51.31,8.44 -22.85,2.39 -39.95,5.21 -51.31,8.43 -55.08,-35.5 -89.45,-57.45 -103.09,-65.85 -30.92,-18.84 -66.45,-39.43 -106.55,-61.8l26.44 -47.42zm170.16 437.17c-5.18,-1.08 -10.56,-7.37 -16.1,-18.87 -5.55,-11.5 -11.23,-16.74 -17.06,-15.69 -5.8,1.03 -14.23,7.03 -25.27,18 -18.54,19.3 -32.25,29.25 -41.14,29.84l-13.97 -136.96c37.78,-6.74 130.65,-26.82 278.63,-60.24 63.41,-14.33 118.85,-25.72 166.32,-34.2 15.39,2.25 25.61,11.92 30.66,29.01 -0.76,-9.87 3.23,-21.07 11.99,-33.63 34.88,-6.23 87.78,-12.18 158.74,-17.85 70.96,-5.68 124.37,-11.72 160.2,-18.12l20.91 108.72 -35.8 9.41 68.24 46.28c-29.13,55.18 -58.26,110.35 -87.39,165.54 -3.19,4.57 -8.64,7.54 -16.39,8.92 -11.63,2.08 -23.38,0.68 -35.25,-4.2 -2.37,3.43 -3.06,8.05 -2.02,13.86 0.69,3.87 2.39,10.57 5.09,20.08 1.39,7.75 0.31,12.94 -3.22,15.57 -37.77,6.75 -94.57,13.39 -170.36,19.93 -75.81,6.54 -132.11,13.09 -168.93,19.66 -25.19,4.5 -61.31,14.95 -108.35,31.35 -47.04,16.4 -82.69,26.77 -106.9,31.09 -16.36,-2.08 -27.07,-11.66 -32.12,-28.75 0.47,13.9 -6.42,25.63 -20.71,35.19l-57.19 7.21 -13.45 -134.05c5.83,-1.04 48.86,-7.72 129.13,-20.05 80.26,-12.34 137.83,-21.63 172.69,-27.85 14.54,-2.6 35.65,-10.36 63.32,-23.29 27.67,-12.95 48.29,-20.63 61.86,-23.05 1.94,-0.35 4.84,-0.86 8.72,-1.56 3.87,-0.68 8.56,-1.03 14.06,-1.01 5.5,0.02 12.42,3.78 20.75,11.29 3.6,3.36 9.57,8.79 17.91,16.29 0.62,-2.11 1.73,-4.31 3.33,-6.59 -1.81,-15.67 -1.82,-24.16 -0.06,-25.48 6.09,-5.09 13.98,-8.49 23.66,-10.22 7.75,-1.38 27.9,-0.48 60.46,2.7 14.26,1.44 25.74,1.4 34.46,-0.16 18.99,-22.38 36.13,-43.93 51.43,-64.66 15.29,-20.72 30.49,-41.93 45.61,-63.62 -13.04,5.32 -26.24,11.18 -39.59,17.57 -13.36,6.37 -25.86,10.61 -37.47,12.69 -14.43,-2.43 -24.16,-12.19 -29.22,-29.28 0.93,10.83 -3.54,22.13 -13.44,33.88 -33.9,6.07 -85.85,11.84 -155.83,17.34 -70.01,5.51 -121.95,11.29 -155.84,17.34 -23.25,4.15 -57.43,14.26 -102.55,30.3 -45.11,16.05 -79.29,26.16 -102.55,30.32zm373.3 601.78c-2.68,2.33 -13.24,1.19 -31.68,-3.41 -7.21,-2.05 -12.09,-1.44 -14.65,1.86 1.97,7.68 4.42,15.31 7.37,22.87 1.72,5.74 -0.28,11.45 -6,17.13 -5.73,5.69 -11.51,8.9 -17.38,9.65 -11.71,1.49 -34.75,1.68 -69.11,0.6 -34.36,-1.09 -60.82,-0.46 -79.36,1.89l-164.31 -133.85c-4.22,-33.19 -10.57,-67.6 -19.07,-103.21 -8.5,-35.63 -17.42,-70.7 -26.76,-105.22l46.29 -10.35c10.99,0.58 21.04,3.52 30.13,8.82 9.11,5.29 13.73,12.38 13.87,21.3 8.01,-22.84 27.15,-36.19 57.41,-40.03 1.61,12.69 2.31,39.63 2.09,80.82 -0.23,41.19 0.72,70.09 2.83,86.68 15.77,14.86 30.88,28.32 45.31,40.37 9.9,7.66 24.81,19.67 44.74,35.98l70.1 -10.4c28.46,-49.25 56.98,-98 85.56,-146.27 2.56,-3.3 6.28,-5.26 11.16,-5.88 11.7,-1.49 21.96,1.17 30.77,7.99 -8.08,-8.89 -12.06,-20.78 -11.97,-35.68 28.01,-29.34 56.08,-58.21 84.22,-86.59 5.85,-0.74 40.26,-3.13 103.24,-7.16 15.75,-1.01 35.82,-3.06 60.23,-6.17 74.8,57.94 144.47,106.63 209,146.05l-25.36 46.36c13.67,-1.74 21.56,5.69 23.67,22.29 0.87,6.83 -0.62,24.38 -4.47,52.65 -3.85,28.25 -5.03,48.24 -3.54,59.96 -8.78,1.11 -40.9,3.96 -96.37,8.53 -55.46,4.56 -100.77,9.08 -135.91,13.55l-17.07 -110.92c22.45,-2.85 42.83,-6.43 61.12,-10.74 18.31,-4.32 35.86,-10.5 52.7,-18.6 -24.09,-25.7 -44.87,-46.62 -62.28,-62.77 -17.43,-16.12 -28.35,-25.89 -32.75,-29.31l-70.65 6.01c-51.6,77.98 -102.63,156.37 -153.12,235.2zm377.97 -128.38l-1.11 -8.79 -0.56 -4.39 1.67 13.18zm-4339.32 -6061.58c1.62,-3.59 -1.81,-6.76 -10.29,-9.52 -3.5,0.58 -6.79,0.72 -9.89,0.4 1.39,1.71 4.82,4.88 10.29,9.5 5.37,2.43 8.66,2.31 9.89,-0.38zm-57.05 61.68c1.77,-11.08 3.29,-17.42 4.55,-19 1.25,-1.59 0.13,-2.1 -3.37,-1.53 -42.41,7.83 -84.29,18.05 -125.64,30.67l-67.27 138.06 105.65 49.38 -43.53 103.43c-34.07,-15.4 -70.42,-26.98 -109.03,-34.71 -3.48,12.46 -7.06,25.16 -10.74,38.07 -3.67,12.92 -7.74,24.31 -12.2,34.17 -5.67,12.55 -12.23,22.28 -19.68,29.17 -7.42,6.9 -15.79,9.87 -25.08,8.91 0.67,5.7 1.98,11.15 3.94,16.36 9.8,14.16 13.05,23.71 9.72,28.69 -5.28,11.65 -15.99,30.57 -32.13,56.75 -28.59,46.47 -46.53,77.79 -53.82,93.93l-102.34 -49.52c12.58,-27.8 27.14,-66.01 43.74,-114.67 33.2,-97.31 56.28,-160.3 69.25,-189 24.54,-25.62 43.31,-49.8 56.29,-72.56 12.99,-22.74 29.6,-56.53 49.88,-101.36 8.42,-21.03 17.2,-41.63 26.31,-61.8 9.13,-20.18 18.34,-40.57 27.67,-61.2 85.94,-32.43 164.29,-67.19 235.06,-104.31l24.29 46.61c2.43,-5.38 8.13,-6.04 17.09,-1.99 4.49,2.03 14.19,8.04 29.12,18.02l77.66 43.22c-0.41,0.9 -13.91,27.18 -40.52,78.87 -26.61,51.68 -47.82,95.01 -63.62,129.98l-102.09 -42.92 23.33 -62.34 3.39 -14.67 4.12 -12.71zm449.01 146.6c2.25,-4.38 -0.25,-7.6 -7.5,-9.64 -7.24,-2.06 -11.52,-2.88 -12.84,-2.44 0.85,2.65 4.12,5.98 9.81,9.99 5.67,4.02 9.18,4.72 10.53,2.09zm-63.31 62.09c4.53,-13.15 8.14,-22.36 10.83,-27.62 -2.65,0.85 -4.64,1.5 -5.96,1.92 -45.39,6.61 -87.28,15 -125.67,25.2l-61.13 109.65 -11.44 22.33 19.71 10.09 30.85 17.47 36.11 20.15c5.26,2.69 12.47,6.94 21.67,12.75 2.68,-5.25 5.61,-10.95 8.75,-17.08 6.27,-12.25 15.24,-30.87 26.94,-55.85 11.68,-24.97 20.44,-43.14 26.27,-54.54l8.11 -19.06 5.44 -17.11 6.1 -15.12 3.42 -13.18zm-141.45 292.39c-5.27,-2.7 -13.57,-7.5 -24.95,-14.43 -11.38,-6.93 -19.7,-11.74 -24.95,-14.43 -14.89,-7.63 -27.94,-11.82 -39.15,-12.59 -11.22,-0.78 -18.64,3.44 -22.25,12.65 -4.05,10.08 -7.55,19.62 -10.5,28.62 -2.95,8.99 -7.11,18.74 -12.49,29.25 -6.28,12.26 -12.87,21.33 -19.75,27.2 -6.87,5.88 -15.15,8.55 -24.83,8.01 0.39,5.73 1.43,11.24 3.14,16.54 8.23,14.17 11.45,22.99 9.65,26.5 -9.87,19.27 -26.18,44.64 -48.93,76.1 -22.75,31.46 -38.39,55.52 -46.91,72.16l-98.49 -53.76c16.14,-31.53 37.08,-81.06 62.82,-148.59 25.74,-67.52 46.91,-117.48 63.51,-149.89 23.54,-22.21 43.79,-46.11 60.77,-71.7 16.97,-25.58 34.43,-55.89 52.37,-90.91 2.24,-4.38 10.09,-20.81 23.58,-49.3 13.48,-28.47 26.05,-54.09 37.71,-76.86 79.01,-24.77 158.97,-55.68 239.86,-92.73l22.66 46.43c2.7,-5.26 7.97,-5.87 15.86,-1.83 10.48,7.58 20.98,15.16 31.48,22.74l74.8 44.96c-17.49,34.15 -57.71,120.24 -120.66,258.27 -26.97,59.14 -51.45,110.18 -73.43,153.09 -11.11,10.89 -25,13.18 -41.66,6.86 9.61,7.14 16.12,17.1 19.52,29.9 -16.15,31.52 -43.44,77.25 -81.87,137.17 -38.42,59.92 -65.94,106.08 -82.53,138.48l-99.21 -49.15c16.32,-49.13 33.3,-98.48 50.94,-148.03 3.14,-6.14 9.12,-10.25 17.95,-12.36 8.82,-2.12 17.4,-1.6 25.72,1.57 -10.49,-7.59 -16.76,-18 -18.83,-31.22 4.48,-8.76 17.09,-27.45 37.84,-56.08 20.74,-28.62 34.47,-49.5 41.21,-62.64zm197.1 416.27c-4.31,3.08 -12.57,2.75 -24.78,-0.99 -12.22,-3.74 -19.92,-3.12 -23.11,1.85 -3.18,4.97 -4.5,15.23 -3.95,30.78 1.57,26.72 -0.44,43.54 -6.06,50.46l-109.98 -82.78c20.72,-32.31 69.06,-114.1 145.05,-245.39 32.57,-56.27 61.87,-104.71 87.88,-145.3 12.11,-9.77 26.14,-10.69 42.12,-2.79 -7.75,-6.14 -13.26,-16.69 -16.53,-31.65 19.11,-29.82 50.69,-72.7 94.73,-128.63 44.03,-55.92 75.88,-99.21 95.53,-129.85l93.99 58.5 -17.43 32.65 81.12 -19.87c19.88,58.32 40.03,116.25 60.44,173.73 1.78,8.17 0.28,15.97 -4.5,23.42 -6.37,9.95 -14.84,16.79 -25.42,20.52 1.18,5.45 7.11,12.16 17.76,20.16 10.66,8 15.47,14.6 14.48,19.8 -9.56,14.91 -25.7,35.55 -48.44,61.88 -22.72,26.34 -38.59,46.55 -47.63,60.64l-132.64 23.66 29.34 129.27c-10.09,15.74 -21.56,38.19 -34.42,67.35 -25.7,58.34 -43.59,95.37 -53.68,111.11 -13.18,11.41 -27.75,13.19 -43.73,5.29 8.58,6.66 13.3,18.45 14.15,35.36l-46.75 64.72 -107.05 -79.15c5.31,-8.29 37.77,-55.28 97.37,-140.97 14.64,-21 33.38,-49.32 56.22,-84.93l-46.22 -157.63c-17.54,27.34 -40.51,70.46 -68.94,129.39 -28.42,58.92 -51.39,102.05 -68.92,129.39zm218.21 -321.23c1.96,2.42 5.06,8.51 9.33,18.25 0.6,2.73 2.17,6.65 4.72,11.8 -0.29,-1.36 -0.33,-3.13 -0.09,-5.32 -1.43,-3.26 -2.17,-6.66 -2.23,-10.2 1.16,-10.93 4.4,-20.55 9.72,-28.83 9.51,-2.08 24.08,-3.85 43.71,-5.3 9.8,-0.72 24.53,-1.8 44.16,-3.24l41.27 -50.69c-5.25,-33.75 -10.1,-60.83 -14.56,-81.22 -6.48,-26.36 -12.29,-52.87 -17.4,-79.54 -4.95,13.2 -9.62,26.86 -14,41 -4.39,14.14 -9.77,26.18 -16.14,36.12 -11.58,8.94 -25.36,9.46 -41.33,1.55 8.58,6.68 13.82,17.63 15.74,32.88 -6.37,9.95 -18.38,25.05 -36.04,45.29 -31.28,36.04 -50.92,60.28 -58.88,72.7 13.3,-4.33 23.98,-2.75 32.02,4.75zm298.63 609.41c-1.24,5.14 -4.32,12.02 -9.22,20.61 -4.9,8.59 -5.34,14.3 -1.34,17.15 4.82,3.42 15.01,5.24 30.56,5.43 26.77,-0.28 43.48,2.55 50.12,8.48l-88.32 103.81c-5.61,-3.98 -27.35,-20.95 -65.23,-50.91 -37.87,-29.94 -69.23,-53.75 -94.08,-71.43 -6.03,-35.67 -13.83,-71.41 -23.4,-107.2 -7.61,-28.34 -18.14,-63.62 -31.62,-105.8l20.35 -36.24c11.98,-8.37 25.76,-8.24 41.34,0.42 -8.02,-5.7 -13.29,-16.1 -15.85,-31.19 14.27,-20.05 47.4,-61.98 99.44,-125.81 52.02,-63.82 88.01,-109.77 107.97,-137.84 22.81,-32.07 41.74,-62.08 56.78,-90.03 25.61,-7.14 43.33,-10.84 53.16,-11.09 21.62,-1.53 36.61,3.7 44.99,15.7 1.72,-2.42 3.42,-4.82 5.13,-7.22 3.28,-18.21 7.38,-27.36 12.3,-27.48 4.12,-0.7 32.14,-1.9 84.07,-3.61 14.76,-0.37 31.46,-1.78 50.09,-4.22l7.17 61.24 20.88 -26.82 103.82 88.32c-5.13,7.22 -24.81,32.77 -59.03,76.66 -34.23,43.87 -61.61,80.24 -82.14,109.12l-93.13 -62.6c12.55,-17.64 24.34,-37.63 35.4,-59.96 8.53,-20.49 17.75,-41.1 27.67,-61.83 -22.76,3.15 -46.78,7.19 -72.04,12.17 -25.27,4.97 -47.7,10.16 -67.24,15.58 -5.13,7.22 -14.63,28.23 -28.52,63.04 -5.92,15.1 -12.01,27.07 -18.28,35.89 -9.49,6.54 -21.85,4.39 -37.09,-6.45 6.08,6.74 10.16,14.17 12.24,22.29 2.07,8.12 0.71,14.69 -4.08,19.73l78.19 55.61c-7.41,10.42 -17.99,26.15 -31.73,47.17 -13.74,21.01 -24.03,36.34 -30.87,45.96 -16.04,-11.4 -32.86,-22.15 -50.43,-32.24 -17.58,-10.09 -34.61,-17.97 -51.1,-23.65l-84.86 111.71c3.23,19.21 7.54,39.47 12.91,60.8 5.35,21.32 10.57,38.61 15.64,51.87 5.37,2.61 12.92,5.58 22.65,8.88 18.66,6.02 30.4,10.74 35.21,14.16 6.41,4.56 10.26,8.49 11.52,11.82zm1112.01 126.03c3.39,-3.56 1.91,-7.34 -4.46,-11.38 -6.35,-4.01 -10.22,-6.01 -11.61,-5.97 0.06,2.78 2.25,6.9 6.55,12.37 4.3,5.46 7.48,7.13 9.52,4.98zm-78.36 41.54c8.09,-11.31 14.16,-19.12 18.24,-23.4 -2.78,0.07 -4.88,0.13 -6.26,0.15 -45.4,-6.56 -87.94,-10.43 -127.64,-11.57l-89.78 87.77 -17.31 18.15 16.02 15.27 24.61 25.52 28.9 29.58c4.27,4.08 9.99,10.21 17.15,18.38 4.06,-4.27 8.49,-8.9 13.24,-13.88 9.5,-9.97 23.4,-25.27 41.7,-45.89 18.3,-20.62 31.87,-35.56 40.69,-44.82l13.19 -15.97 10.09 -14.86 10.14 -12.77 7.02 -11.66zm-218.72 240.12c-4.28,-4.06 -10.88,-11.04 -19.82,-20.91 -8.93,-9.89 -15.54,-16.86 -19.81,-20.93 -12.11,-11.54 -23.43,-19.28 -33.97,-23.21 -10.53,-3.92 -18.84,-1.99 -24.91,5.8 -6.76,8.52 -12.83,16.67 -18.2,24.46 -5.39,7.78 -12.16,15.95 -20.31,24.5 -9.49,9.96 -18.39,16.79 -26.65,20.47 -8.28,3.68 -16.97,3.88 -26.09,0.62 -1.26,5.6 -1.82,11.18 -1.68,16.75 3.85,15.92 4.43,25.29 1.7,28.14 -14.94,15.67 -37.77,35.36 -68.53,59.05 -30.75,23.71 -52.58,42.32 -65.49,55.86l-79.15 -79.55c24.44,-25.63 58.6,-67.16 102.47,-124.58 43.87,-57.43 78.38,-99.31 103.5,-125.67 28.87,-14.6 55.09,-31.76 78.63,-51.47 23.55,-19.7 48.9,-43.79 76.06,-72.28 3.4,-3.56 15.6,-17.08 36.61,-40.56 21.02,-23.46 40.36,-44.45 58,-62.97 82.8,-1.28 168.25,-8.19 256.34,-20.73l8.52 50.96c4.07,-4.28 9.32,-3.36 15.73,2.75 7.9,10.25 15.8,20.5 23.71,30.75l58.94 64.37c-26.47,27.77 -89.51,98.87 -189.08,213.32 -42.69,49.03 -80.66,91.01 -113.93,125.91 -13.75,7.28 -27.71,5.53 -41.9,-5.27 7.2,9.58 10.6,20.97 10.22,34.21 -24.44,25.64 -63.6,61.72 -117.47,108.24 -53.88,46.53 -93.37,82.96 -118.5,109.32l-81.15 -75.32c29.62,-42.46 59.92,-84.95 90.93,-127.45 4.76,-4.99 11.65,-7.24 20.73,-6.76 9.05,0.49 17.12,3.42 24.21,8.82 -7.9,-10.25 -10.97,-22.01 -9.19,-35.28 6.79,-7.12 24.19,-21.46 52.21,-43 28.03,-21.55 47.14,-37.66 57.32,-48.36zm395.96 387.23c-0.78,3.47 -9.96,8.81 -27.53,16.05 -7.02,2.63 -10.58,6.01 -10.69,10.19 6.15,5.02 12.65,9.7 19.5,14.04 4.79,3.59 6.58,9.38 5.33,17.35 -1.23,7.98 -3.98,14 -8.25,18.07 -8.55,8.16 -26.98,21.98 -55.28,41.49 -28.31,19.51 -49.23,35.71 -62.77,48.61l-211.68 -10.26c-23.09,-24.22 -48.62,-48.14 -76.59,-71.79 -27.97,-23.63 -55.96,-46.57 -83.96,-68.81l31.13 -35.79c9.19,-6.06 19.02,-9.65 29.48,-10.78 10.48,-1.15 18.41,1.83 23.8,8.91 -7.09,-23.14 0.39,-45.24 22.46,-66.28 8.83,9.26 25.37,30.53 49.65,63.83 24.25,33.28 42.16,55.98 53.71,68.09 21.5,2.6 41.64,4.48 60.41,5.61 12.52,0.3 31.64,1.11 57.37,2.43l50.25 -49.97c-6.31,-56.53 -12.27,-112.69 -17.9,-168.51 0.1,-4.17 1.93,-7.96 5.5,-11.35 8.53,-8.15 18.38,-12.09 29.5,-11.82 -11.77,-2.37 -22.04,-9.58 -30.81,-21.63 5.14,-40.24 10.62,-80.12 16.43,-119.66 4.28,-4.07 30.56,-26.41 78.86,-67.02 12.08,-10.15 27.02,-23.72 44.82,-40.69 94.6,2.26 179.57,0.11 254.89,-6.44l7.1 52.36c9.97,-9.51 20.74,-8.2 32.28,3.9 4.74,4.99 13.96,20 27.63,45.04 13.67,25.03 24.58,41.81 32.73,50.37 -6.4,6.11 -30.59,27.46 -72.52,64.04 -41.94,36.58 -75.72,67.09 -101.36,91.54l-79.55 -79.15c16.38,-15.62 30.66,-30.6 42.83,-44.92 12.17,-14.33 22.63,-29.73 31.38,-46.23 -34.65,-6.4 -63.77,-10.92 -87.37,-13.58 -23.6,-2.65 -38.18,-4.03 -43.75,-4.17l-53.31 46.75c4.72,93.39 10.15,186.78 16.28,280.18zm228.1 -327.58l-6.11 -6.42 -3.05 -3.2 9.16 9.62zm56.57 647.63c-0.94,3.42 -10.36,8.32 -28.27,14.72 -7.13,2.29 -10.85,5.5 -11.16,9.67 5.91,5.3 12.18,10.29 18.81,14.95 4.61,3.82 6.12,9.68 4.5,17.58 -1.61,7.92 -4.65,13.8 -9.12,17.67 -8.91,7.72 -27.98,20.66 -57.19,38.8 -29.19,18.13 -50.87,33.32 -65,45.56l-210.96 -20.35c-21.9,-25.29 -46.26,-50.41 -73.07,-75.35 -26.82,-24.94 -53.68,-49.18 -80.58,-72.75l32.78 -34.26c9.47,-5.6 19.47,-8.73 29.98,-9.37 10.51,-0.64 18.29,2.71 23.35,10.05 -6,-23.45 2.53,-45.17 25.59,-65.14 8.38,9.67 23.89,31.71 46.54,66.12 22.64,34.41 39.45,57.93 50.4,70.58 21.36,3.63 41.38,6.46 60.07,8.49 12.5,0.9 31.57,2.62 57.19,5.15l52.59 -47.5c-3.6,-56.77 -6.89,-113.16 -9.85,-169.18 0.3,-4.17 2.3,-7.86 6.02,-11.08 8.92,-7.72 18.95,-11.19 30.05,-10.39 -11.65,-2.93 -21.57,-10.62 -29.74,-23.07 7.04,-39.95 14.42,-79.53 22.11,-118.75 4.46,-3.86 31.78,-24.92 81.97,-63.18 12.54,-9.56 28.11,-22.4 46.7,-38.51 94.39,6.76 179.36,8.67 254.91,5.72l4.6 52.65c10.42,-9.03 21.09,-7.21 32.05,5.43 4.5,5.21 13,20.64 25.46,46.3 12.45,25.65 22.55,42.95 30.28,51.87 -6.69,5.8 -31.85,25.97 -75.49,60.51 -43.63,34.54 -78.84,63.41 -105.61,86.6l-75.68 -82.85c17.11,-14.81 32.08,-29.09 44.92,-42.82 12.84,-13.73 24.02,-28.62 33.56,-44.68 -34.3,-8.04 -63.18,-13.94 -86.63,-17.72 -23.45,-3.78 -37.95,-5.86 -43.5,-6.26l-55.48 44.16c0.27,93.5 1.24,187.04 2.9,280.63zm243.46 -316.34l-5.8 -6.69 -2.9 -3.35 8.7 10.04zm245.11 445.39c8.25,-7.08 13.97,-11.74 17.19,-14.03 3.2,-2.28 3.44,-3.65 0.7,-4.12 -24.02,-8.28 -46.62,-15.46 -67.82,-21.5 -21.21,-6.05 -42.27,-11.9 -63.19,-17.55 -26.47,18.82 -90.06,69.47 -190.79,151.97 -44.23,36.27 -82.39,65.83 -114.45,88.64 -7.33,1.58 -15.85,-0.2 -25.56,-5.38 -4.47,-2.86 -8.11,-6.3 -10.97,-10.32 5.01,12.14 4.99,24.84 -0.08,38.09 -29.54,16.19 -59.09,32.37 -88.63,48.55 14.51,1.74 36.22,1.72 65.12,-0.12 28.88,-1.83 50.88,-1.47 65.96,1.08 7.2,3.33 13.94,9.41 20.22,18.23 2.84,4.01 6.31,10.6 10.41,19.76 -1.79,-14.43 1.04,-29.11 8.51,-44.09 28.87,-20.53 74.17,-48.51 135.9,-83.96 61.73,-35.45 107.04,-63.43 135.91,-83.96l70.45 -53.72 17.19 -14.04 13.93 -13.53zm-589.18 304.87c2.08,-12.35 2.79,-20.7 2.11,-25.04 -1.94,-1.03 -3.19,-1.96 -3.76,-2.76 -1.61,1.14 -4.76,5.2 -9.47,12.17 -12.03,8.55 -25.45,2.39 -40.28,-18.46 -5.13,-7.21 -12.03,-18.6 -20.69,-34.18 -8.67,-15.58 -14.71,-25.77 -18.12,-30.58 28.86,-20.53 70.28,-54.82 124.26,-102.87 53.98,-48.04 95.81,-82.6 125.48,-103.71 14.88,-4.54 28.54,0.24 40.99,14.33 -6.06,-10.19 -7.11,-22.72 -3.19,-37.58 20.04,-14.27 51.54,-33.63 94.49,-58.14 76.51,-43.53 128.4,-75.01 155.66,-94.39 81.52,14.47 166.73,23.91 255.6,28.34l-3.99 98.82c3.21,-2.28 7.74,-6.1 13.58,-11.47 8.02,-5.7 15.35,-7.28 21.98,-4.76 4.56,6.42 15.61,24.51 33.18,54.3 4.55,6.41 10.88,17 18.97,31.78 -96.32,56.42 -182.17,111.43 -257.55,165.03 -20.85,14.83 -49.04,39.71 -84.58,74.64 -35.53,34.92 -63.33,59.52 -83.38,73.78 -15.68,5.11 -29.45,1.02 -41.33,-12.28 5.81,11.57 6.6,23.7 2.34,36.38 -9.63,6.85 -24.81,15.22 -45.52,25.14 -20.73,9.9 -35.91,18.28 -45.53,25.11 -63.79,-15 -103.53,-24.17 -119.19,-27.51 -35.45,-7.41 -75.81,-14.93 -121.1,-22.58l9.04 -53.51zm422.01 432.62c-3.07,4.31 -8.5,9.53 -16.24,15.67 -7.77,6.14 -10.31,11.28 -7.65,15.43 3.18,4.95 11.96,10.45 26.32,16.43 24.94,9.73 39.39,18.59 43.33,26.58l-120.7 63.34c-3.71,-5.79 -17.54,-29.66 -41.49,-71.58 -23.95,-41.91 -44.17,-75.72 -60.62,-101.39 7.72,-35.35 13.83,-71.41 18.31,-108.18 3.52,-29.15 6.91,-65.8 10.16,-109.95l32.4 -26.04c14.26,-3.3 26.99,1.98 38.2,15.83 -5.3,-8.29 -6.33,-19.9 -3.06,-34.86 20.72,-13.27 67.12,-39.81 139.21,-79.59 72.09,-39.78 122.64,-68.98 151.62,-87.57 33.14,-21.24 61.9,-42.01 86.3,-62.32 26.42,2.93 44.24,6.11 53.46,9.55 20.62,6.65 32.58,17.1 35.87,31.36 2.49,-1.6 4.97,-3.19 7.46,-4.79 9.84,-15.65 17.05,-22.62 21.67,-20.9 4.07,0.9 30.52,10.24 79.33,28.04 13.83,5.16 29.85,10.08 48.05,14.78l-16.22 59.48 29.38 -17.07 63.35 120.69c-7.46,4.78 -35.25,21.14 -83.38,49.07 -48.13,27.93 -87.11,51.46 -116.93,70.58l-63.03 -92.85c18.22,-11.68 36.62,-25.82 55.23,-42.4 15.56,-15.83 31.8,-31.5 48.74,-47.04 -22.29,-5.58 -46.08,-10.78 -71.37,-15.6 -25.31,-4.82 -48.04,-8.37 -68.19,-10.65 -7.46,4.79 -24.12,20.73 -49.99,47.83 -11.13,11.82 -21.26,20.64 -30.37,26.48 -11.24,2.52 -21.9,-4.07 -31.99,-19.82 2.36,5.51 3.41,11.26 3.17,17.26 -0.25,6 -1.52,12.67 -3.83,19.99 -25.69,16.47 -66.06,38.26 -121.14,65.39 -55.08,27.13 -95.46,48.93 -121.14,65.39 -4.17,19.03 -7.74,39.44 -10.72,61.22 -2.98,21.79 -4.61,39.77 -4.86,53.96 4.02,4.44 9.92,10.01 17.71,16.69 15.07,12.56 24.2,21.32 27.38,26.29 4.24,6.63 6.33,11.72 6.27,15.27zm617.49 -37.55c-8.57,-10.96 -10.5,-25.18 -5.79,-42.65 3.4,-9.9 7.58,-17.41 12.58,-22.55 -3.44,-5.97 -18.96,-15.21 -46.57,-27.7 -10.88,-5.1 -18.53,-11.48 -22.95,-19.16l127.25 -62.95c19.63,34.12 47.36,86.28 83.18,156.49 35.82,70.21 63.54,122.36 83.16,156.49l-95.96 55.18 -13.98 -24.32c-13.72,-23.89 -28.99,-47.45 -45.77,-70.73 -25.59,14.72 -89.5,56.58 -191.71,125.57 -44.96,30.39 -83.64,54.9 -116.06,73.54 -6.1,1.24 -12.26,-0.6 -18.51,-5.54 -6.25,-4.92 -10.4,-10.19 -12.49,-15.79 2.1,13.53 -0.42,26.91 -7.59,40.11 -13.64,7.85 -47.83,22.39 -102.58,43.66 -24.15,9.34 -43.47,18.19 -57.96,26.52l56.11 100.55 -94.69 54.44c-14.23,-24.73 -38.74,-59.45 -73.52,-104.15 -34.79,-44.71 -59.28,-79.43 -73.5,-104.17 -1.6,-4.75 1.54,-13.09 9.44,-25.01 7.9,-11.92 10.39,-20.44 7.44,-25.56 -12.07,4.68 -24.22,2.29 -36.45,-7.13 -12.24,-9.43 -23.01,-22.24 -32.32,-38.45l127.25 -62.96 54.67 109.88c7.18,-5.27 16.89,-14.53 29.12,-27.8 12.24,-13.29 22.19,-22.13 29.87,-26.55 18.29,-3.7 35.88,-0.76 52.75,8.83 -9.18,-6.07 -13.47,-15.53 -12.9,-28.33 23.89,-13.74 86.66,-44.73 188.33,-92.97 44.61,-21.11 81.84,-40.26 111.71,-57.43 27.29,-15.69 56.77,-35.48 88.44,-59.36zm360.04 535.4c4.48,-2.02 4.54,-6.09 0.14,-12.21 -4.37,-6.11 -7.23,-9.41 -8.53,-9.91 -0.98,2.61 -0.5,7.25 1.44,13.92 1.94,6.69 4.26,9.42 6.95,8.2zm-88.22 9.11c11.74,-7.47 20.3,-12.42 25.69,-14.85 -2.61,-0.99 -4.56,-1.72 -5.86,-2.22 -39.61,-23.11 -77.61,-42.67 -113.97,-58.61l-116.15 47.65 -22.87 10.33 9.12 20.17 13.25 32.9 15.68 38.26c2.44,5.38 5.42,13.2 8.99,23.47 5.38,-2.42 11.22,-5.06 17.49,-7.9 12.55,-5.67 31.17,-14.63 55.88,-26.88 24.7,-12.25 42.87,-21.01 54.54,-26.27l18.22 -9.87 14.92 -9.98 14.19 -8.03 10.88 -8.17zm-292.85 140.5c-2.43,-5.38 -5.94,-14.32 -10.51,-26.83 -4.58,-12.51 -8.08,-21.46 -10.51,-26.84 -6.9,-15.24 -14.49,-26.66 -22.78,-34.25 -8.29,-7.58 -16.72,-8.92 -25.28,-3.97 -9.46,5.36 -18.14,10.63 -26.04,15.84 -7.92,5.2 -17.25,10.22 -28.01,15.09 -12.55,5.67 -23.34,8.66 -32.4,8.97 -9.03,0.31 -17.17,-2.76 -24.41,-9.21 -3.25,4.71 -5.88,9.68 -7.84,14.89 -2.4,16.2 -5.39,25.11 -8.97,26.73 -19.74,8.91 -48.29,18.6 -85.7,29.02 -37.4,10.43 -64.62,19.49 -81.65,27.2l-43.53 -103.43c32.28,-14.6 79.53,-40.29 141.74,-77.04 62.21,-36.76 109.9,-62.65 143.08,-77.65 32.25,-2.7 62.99,-8.77 92.2,-18.2 29.22,-9.42 61.77,-22.25 97.62,-38.46 4.5,-2.03 20.88,-9.98 49.16,-23.85 28.29,-13.86 54.1,-26.07 77.4,-36.61 77.22,29.88 159.02,55.55 245.39,76.98l-11.23 50.42c5.38,-2.43 9.9,0.39 13.55,8.47 3.47,12.45 6.95,24.92 10.43,37.39l30.49 81.79c-34.97,15.8 -120.08,58.06 -255.32,126.77 -57.96,29.44 -108.91,54.1 -152.85,73.96 -15.47,1.59 -27.75,-5.27 -36.85,-20.6 3.08,11.57 1.95,23.42 -3.37,35.54 -32.27,14.6 -82.12,33.35 -149.5,56.26 -67.41,22.9 -117.69,41.86 -150.87,56.85l-46.95 -100.25c43.39,-28.26 87.42,-56.27 132.11,-84.03 6.28,-2.84 13.52,-2.33 21.73,1.52 8.22,3.85 14.6,9.6 19.15,17.26 -3.48,-12.48 -1.9,-24.52 4.72,-36.15 8.97,-4.06 30.48,-10.82 64.54,-20.28 34.06,-9.45 57.81,-17.22 71.26,-23.3zm438.72 192.91c-5.41,-13.73 -4.62,-27.8 2.4,-42.2 3.33,-7.66 8.93,-13.57 16.82,-17.72 -2.54,-6.42 -16.55,-17.82 -42.06,-34.21 -10.02,-6.62 -16.65,-14.05 -19.9,-22.28l135.08 -43.74c1.8,4.57 4.66,17.19 8.58,37.85 3.92,20.67 7.5,35.13 10.74,43.36 6.51,16.48 15.7,22.37 27.61,17.69 7.21,18.3 21.87,67.53 43.95,147.67 9.68,35.32 19.04,64.42 28.06,87.3l-102.97 40.61 -46.35 -105.48c-28.38,11.19 -65.93,28.64 -112.63,52.35 -94.36,47.77 -156.63,77.61 -186.84,89.52 -15.53,0.84 -27.46,-6.62 -35.8,-22.38 2.5,11.71 0.8,23.49 -5.11,35.33 -32.94,13 -83.65,29.29 -152.09,48.87 -68.44,19.58 -119.58,36.04 -153.45,49.4l-41.99 -102.45c13.73,-5.41 31.6,-15.1 53.59,-29.05 43.09,-27.57 72.41,-44.42 87.97,-50.56 14.61,-0.47 26.1,7.16 34.42,22.93 -2.86,-12.63 -0.7,-24.59 6.49,-35.88 15.55,-6.14 94.53,-32.52 236.92,-79.14 47.78,-15.66 94.54,-32.51 140.33,-50.56 11.88,-4.7 22.97,-10.13 33.23,-16.29 10.27,-6.16 21.26,-13.15 33,-20.94zm163.62 421.4c-6.28,-12.42 -5.41,-26.74 2.61,-42.96 5.25,-9.05 10.82,-15.61 16.71,-19.68 -2.21,-6.53 -15.64,-18.61 -40.3,-36.23 -9.68,-7.11 -15.94,-14.85 -18.79,-23.24l137.08 -37.03c12.61,37.28 29.67,93.84 51.18,169.66 21.49,75.84 38.54,132.4 51.16,169.69l-104.85 35.47 -8.99 -26.57c-8.83,-26.1 -19.22,-52.18 -31.16,-78.28 -27.97,9.47 -98.79,38.11 -212.46,85.92 -50,21.08 -92.71,37.6 -128.14,49.59 -6.21,0.03 -11.91,-2.98 -17.08,-9.03 -5.17,-6.04 -8.23,-12.02 -9.18,-17.92 -0.56,13.68 -5.63,26.31 -15.23,37.87 -14.91,5.05 -51.29,12.67 -109.13,22.9 -25.49,4.46 -46.16,9.39 -62.01,14.75l35.5 109.53 -103.45 35.01c-9.15,-27.03 -26.45,-65.86 -51.89,-116.47 -25.42,-50.61 -42.71,-89.42 -51.86,-116.45 -0.63,-4.98 4.07,-12.54 14.13,-22.7 10.08,-10.16 14.17,-18.03 12.28,-23.63 -12.76,2.24 -24.21,-2.46 -34.38,-14.09 -10.16,-11.62 -18.25,-26.28 -24.23,-43.99l137.06 -37.02 32.27 118.4c8.08,-3.77 19.4,-10.97 33.97,-21.62 14.58,-10.64 26.07,-17.39 34.45,-20.23 18.68,-0.08 35.36,6.23 50.04,18.91 -7.82,-7.74 -10.2,-17.84 -7.14,-30.3 26.1,-8.83 93.69,-27.03 202.8,-54.6 47.86,-12.03 88.1,-23.58 120.73,-34.62 29.83,-10.09 62.59,-23.77 98.3,-41.04zm-11183.95 -4088.8c-6.67,-8.58 -11.07,-14.53 -13.19,-17.84 -2.12,-3.31 -3.48,-3.61 -4.08,-0.9 -9.44,23.59 -17.68,45.83 -24.74,66.72 -7.06,20.88 -13.92,41.64 -20.56,62.26 17.53,27.35 65.07,93.3 142.62,197.87 34.12,45.92 61.8,85.45 83.04,118.59 1.23,7.39 -0.96,15.82 -6.59,25.27 -3.09,4.31 -6.7,7.79 -10.84,10.45 12.37,-4.42 25.04,-3.78 38.04,1.9 14.75,30.29 29.49,60.58 44.24,90.87 2.44,-14.42 3.44,-36.1 3.01,-65.05 -0.45,-28.93 0.97,-50.88 4.24,-65.84 3.68,-7.03 10.07,-13.46 19.19,-19.3 4.13,-2.66 10.88,-5.81 20.23,-9.46 -14.5,1.09 -29.03,-2.44 -43.63,-10.62 -19.11,-29.82 -44.89,-76.41 -77.33,-139.77 -32.45,-63.37 -58.21,-109.97 -77.34,-139.79l-50.28 -72.96 -13.19 -17.84 -12.84 -14.56zm276.21 603.15c-12.24,-2.67 -20.55,-3.78 -24.91,-3.31 -1.14,1.89 -2.11,3.09 -2.94,3.62 1.06,1.67 4.96,5.01 11.69,10.03 7.98,12.45 1.18,25.56 -20.36,39.36 -7.45,4.78 -19.17,11.12 -35.14,19.03 -15.97,7.9 -26.44,13.45 -31.41,16.63 -19.12,-29.81 -51.38,-72.83 -96.78,-129.07 -45.39,-56.22 -77.92,-99.67 -97.56,-130.31 -3.83,-15.08 1.6,-28.5 16.28,-40.25 -10.47,5.55 -23.04,6.01 -37.7,1.38 -13.27,-20.71 -31.11,-53.1 -53.53,-97.18 -39.81,-78.51 -68.74,-131.85 -86.8,-160.01 18.36,-80.74 31.89,-165.39 40.58,-253.95l98.52 8.74c-2.12,-3.32 -5.72,-8.03 -10.8,-14.12 -5.3,-8.28 -6.54,-15.69 -3.69,-22.18 6.62,-4.25 25.22,-14.43 55.81,-30.53 6.63,-4.24 17.51,-10.06 32.67,-17.43 51.72,98.91 102.54,187.32 152.47,265.18 13.8,21.55 37.3,50.89 70.48,88.08 33.18,37.16 56.41,66.1 69.69,86.81 4.34,15.91 -0.39,29.47 -14.25,40.69 11.83,-5.23 23.98,-5.44 36.46,-0.58 6.37,9.95 14,25.51 22.92,46.68 8.89,21.18 16.52,36.74 22.89,46.68 -18.04,63 -29.12,102.25 -33.22,117.74 -9.09,35.04 -18.54,75 -28.35,119.86l-53.02 -11.59zm151.28 -930.71c-1.8,-3.51 -6.41,-2.79 -13.84,2.12 -1.74,3.1 -3.69,5.75 -5.87,7.97 2.21,-0.01 6.82,-0.72 13.84,-2.11 5.26,-2.69 7.21,-5.35 5.87,-7.98zm12.68 83.06c-7.57,-8.29 -11.58,-13.42 -12.03,-15.41 -0.46,-1.96 -1.55,-1.4 -3.29,1.69 -20.31,38.05 -38.4,77.17 -54.32,117.37l66.04 138.65 104.47 -51.85 53.76 98.51c-33.27,17.04 -64.98,38.26 -95.1,63.63 7.58,10.49 15.27,21.2 23.08,32.13 7.81,10.92 14.18,21.2 19.12,30.83 6.27,12.26 9.79,23.46 10.56,33.57 0.75,10.1 -2.14,18.5 -8.67,25.16 4.86,3.04 9.95,5.41 15.25,7.12 17.18,1.16 26.67,4.58 28.48,10.29 5.83,11.38 13.95,31.55 24.36,60.49 18.52,51.32 31.84,84.85 39.91,100.61l-102.5 49.19c-13.91,-27.15 -34.71,-62.37 -62.42,-105.68 -55.4,-86.6 -90.28,-143.91 -104.64,-171.94 -4.75,-35.16 -11.96,-64.91 -21.66,-89.24 -9.7,-24.33 -25.76,-58.39 -48.19,-102.18 -11.2,-19.69 -21.83,-39.39 -31.93,-59.1 -10.09,-19.71 -20.29,-39.63 -30.62,-59.78 28.21,-87.41 49.85,-170.35 64.93,-248.84l51.59 10.06c-2.69,-5.24 0.34,-10.12 9.1,-14.61 4.39,-2.24 15.13,-6.08 32.24,-11.53l82.18 -33.8c0.46,0.88 12.6,27.82 36.44,80.85 23.83,53.01 44.5,96.6 61.99,130.76l-97.19 53.09 -34.21 -57.1 -9.36 -11.79 -7.37 -11.15zm999.01 198.02c-0.04,5.3 -5.13,11.8 -15.31,19.52 -10.18,7.71 -14.19,14.32 -12.02,19.82 2.17,5.48 9.71,12.55 22.63,21.2 22.6,14.38 35.05,25.85 37.39,34.46l-131.49 40.73c-14.08,-35.7 -52.11,-122.77 -114.1,-261.23 -26.58,-59.33 -48.7,-111.42 -66.39,-156.29 -0.83,-15.53 6.62,-27.45 22.38,-35.79 -9.52,2.69 -21.29,1 -35.34,-5.1 -12.99,-32.96 -29.27,-83.65 -48.84,-152.1 -19.6,-68.43 -36.06,-119.59 -49.41,-153.45l102.43 -41.99 16.3 33.26 31.35 -77.42c58.93,18.02 117.69,35.57 176.25,52.67 7.66,3.33 13.11,9.11 16.35,17.35 4.34,10.98 4.93,21.85 1.77,32.62 5.1,2.22 14.02,1.35 26.74,-2.61 12.72,-3.95 20.89,-3.99 24.53,-0.16 6.5,16.49 13.78,41.66 21.82,75.5 8.07,33.84 15.17,58.55 21.3,74.11l-58.44 121.41 122 51.85c6.86,17.41 18.34,39.84 34.47,67.33 32.26,54.98 51.81,91.15 58.67,108.55 1.56,17.36 -5.54,30.22 -21.3,38.55 10.44,-3.06 22.76,0.01 36.97,9.23l25.1 75.77 -126.82 40.49c-3.61,-9.16 -22.72,-62.98 -57.32,-161.45 -8.46,-24.16 -20.45,-55.94 -35.97,-95.29l-154.88 -54.76c11.92,30.21 33.44,74.08 64.59,131.61 31.15,57.53 52.67,101.4 64.59,131.61zm-132.78 -364.93c3.1,-0.17 9.85,0.87 20.26,3.12 2.55,1.1 6.66,2.12 12.33,3.07 -1.28,-0.55 -2.74,-1.56 -4.38,-3.04 -3.47,-0.75 -6.66,-2.14 -9.58,-4.16 -8.17,-7.34 -14.08,-15.59 -17.68,-24.75 3.88,-8.93 10.97,-21.78 21.29,-38.55 5.15,-8.38 12.89,-20.95 23.2,-37.71l-16.95 -63.11c-30.44,-15.51 -55.23,-27.41 -74.38,-35.73 -25.16,-10.18 -50.05,-21 -74.66,-32.44 7.8,11.73 16.15,23.51 25.05,35.34 8.89,11.84 15.5,23.25 19.82,34.22 0.49,14.63 -7.16,26.1 -22.91,34.43 10.44,-3.06 22.38,-0.9 35.87,6.48 4.33,10.99 9.54,29.56 15.63,55.72 10.92,46.47 19.09,76.56 24.5,90.29 4.26,-13.32 11.79,-21.05 22.59,-23.18zm688.45 131.84c3.24,4.19 6.68,10.9 10.31,20.1 3.64,9.19 7.81,13.12 12.55,11.77 5.68,-1.61 13.46,-8.43 23.35,-20.44 16.53,-21.06 29.18,-32.33 37.97,-33.8l25.74 133.86c-6.63,1.89 -33.47,8.23 -80.53,19.03 -47.05,10.8 -85.26,20.38 -114.58,28.7 -31.61,-17.61 -64.36,-33.89 -98.27,-48.81 -26.88,-11.8 -60.98,-25.65 -102.32,-41.52l-15.55 -38.55c0.97,-14.6 9.7,-25.26 26.21,-31.99 -9.47,2.68 -20.89,0.29 -34.26,-7.15 -6.73,-23.68 -18.7,-75.77 -35.94,-156.28 -17.23,-80.52 -30.56,-137.34 -39.98,-170.47 -10.75,-37.86 -22.32,-71.4 -34.69,-100.62 10.44,-24.45 18.64,-40.6 24.6,-48.42 12.32,-17.82 25.8,-26.24 40.38,-25.28 -0.8,-2.85 -1.61,-5.67 -2.42,-8.52 -12.14,-13.94 -16.73,-22.87 -13.73,-26.78 2.03,-3.65 18.62,-26.27 49.78,-67.83 8.94,-11.75 18.27,-25.66 28.05,-41.74l52.24 32.74 -7.85 -33.07 133.85 -25.74c2.43,8.53 10.05,39.86 22.87,94.01 12.81,54.16 24.06,98.27 33.74,132.35l-107.1 33.49c-5.91,-20.83 -14.12,-42.53 -24.63,-65.13 -10.65,-19.48 -20.96,-39.56 -30.93,-60.27 -11.78,19.73 -23.64,41 -35.57,63.81 -11.94,22.83 -21.91,43.57 -29.9,62.21 2.41,8.51 12.86,29.07 31.32,61.68 8.08,14.06 13.6,26.3 16.56,36.72 -0.83,11.49 -10.24,19.79 -28.22,24.89 9.06,-0.51 17.4,0.95 25.03,4.41 7.64,3.46 11.91,8.63 12.86,15.52l92.29 -26.21c3.49,12.31 9.13,30.4 16.94,54.27 7.8,23.87 13.32,41.49 16.54,52.84 -18.93,5.38 -37.83,11.77 -56.7,19.17 -18.87,7.41 -35.67,15.76 -50.41,25.06l34.03 136.1c17.02,9.49 35.53,18.8 55.51,27.97 19.99,9.15 36.75,15.9 50.25,20.24 5.42,-2.56 12.45,-6.59 21.11,-12.12 16.38,-10.78 27.39,-16.98 33.08,-18.6 7.57,-2.15 13.04,-2.68 16.42,-1.6zm435.21 -340.63c2.6,2.44 2.51,13.06 -0.21,31.87 -1.33,7.37 -0.22,12.17 3.31,14.38 7.45,-2.72 14.8,-5.94 22.03,-9.62 5.53,-2.29 11.41,-0.87 17.64,4.25 6.23,5.13 10.01,10.57 11.34,16.32 2.65,11.5 5.17,34.41 7.53,68.71 2.36,34.28 5.63,60.55 9.85,78.77l-116.72 176.89c-32.6,7.53 -66.2,17.31 -100.79,29.33 -34.59,12.03 -68.59,24.41 -102,37.18l-14.93 -45.02c-0.52,-11 1.39,-21.29 5.74,-30.87 4.37,-9.6 10.96,-14.91 19.82,-15.93 -23.54,-5.69 -38.74,-23.39 -45.59,-53.11 12.47,-2.87 39.2,-6.27 80.21,-10.18 41.01,-3.91 69.65,-7.75 85.95,-11.51 13.21,-17.18 25.08,-33.55 35.63,-49.12 6.63,-10.63 17.08,-26.67 31.31,-48.13l-17.38 -68.71c-51.84,-23.37 -103.22,-46.86 -154.1,-70.45 -3.55,-2.22 -5.87,-5.73 -6.98,-10.52 -2.65,-11.51 -1.03,-21.98 4.88,-31.42 -8.05,8.92 -19.48,14.09 -34.31,15.48 -32.01,-24.92 -63.53,-49.95 -94.59,-75.11 -1.33,-5.75 -7.15,-39.74 -17.48,-102 -2.58,-15.56 -6.64,-35.33 -12.17,-59.3 50.15,-80.24 91.6,-154.44 124.35,-222.59l48.66 20.57c-3.09,-13.42 3.52,-22.01 19.82,-25.77 6.7,-1.55 24.32,-1.83 52.82,-0.84 28.51,1 48.51,0.17 60.02,-2.48 1.99,8.62 8.05,40.3 18.15,95.02 10.1,54.73 19.13,99.35 27.11,133.87l-108.65 28.1c-5.09,-22.04 -10.69,-41.96 -16.81,-59.73 -6.13,-17.79 -14.06,-34.64 -23.79,-50.56 -23.17,26.54 -41.89,49.3 -56.21,68.25 -14.3,18.96 -22.92,30.8 -25.88,35.51l13.06 69.7c82.76,43.52 165.88,86.44 249.36,128.77zm-165.62 -363.19l-8.63 1.98 -4.31 1 12.94 -2.98zm347.59 2.17c-13.22,4.37 -27.25,1.37 -42.08,-8.98 -8.18,-6.54 -13.83,-13.01 -16.98,-19.46 -6.78,1.21 -20.72,12.7 -41.83,34.47 -8.47,8.51 -17.07,13.54 -25.79,15.1l-16.18 -141.05c38.73,-6.92 97.21,-15.36 175.4,-25.33 78.19,-9.95 136.65,-18.39 175.4,-25.32l19.46 108.97 -27.61 4.94c-27.12,4.83 -54.46,11.22 -82.05,19.15 5.19,29.06 22.96,103.35 53.3,222.88 13.4,52.59 23.38,97.28 29.95,134.09 -0.9,6.17 -4.72,11.34 -11.47,15.55 -6.75,4.2 -13.11,6.34 -19.1,6.41 13.45,2.6 25.19,9.49 35.19,20.71 2.76,15.49 4.89,52.6 6.38,111.31 0.62,25.87 2.41,47.05 5.35,63.51l113.59 -18.78 19.21 107.52c-28.1,5.02 -69.05,16.33 -122.89,33.95 -53.84,17.61 -94.8,28.91 -122.89,33.94 -5.02,-0.11 -11.8,-5.9 -20.34,-17.36 -8.55,-11.47 -15.73,-16.69 -21.54,-15.66 0.31,12.95 -6.04,23.58 -19.05,31.9 -13,8.32 -28.7,14.13 -47.11,17.42l-16.18 -141.06 121.88 -14.28c-2.52,-8.54 -7.96,-20.8 -16.31,-36.81 -8.36,-16.01 -13.32,-28.35 -14.88,-37.08 2.71,-18.47 11.43,-34.03 26.16,-46.65 -8.83,6.57 -19.16,7.42 -31.03,2.54 -4.85,-27.12 -12.77,-96.67 -23.77,-208.67 -4.77,-49.12 -10.19,-90.64 -16.25,-124.54 -5.53,-31 -14.18,-65.44 -25.94,-103.33zm586.39 622.08c-1.1,-0.86 -4.38,-7.13 -9.83,-18.84 -5.46,-11.7 -8.67,-17.5 -9.65,-17.37 -0.85,1.1 -1.7,2.2 -2.56,3.31 0.74,5.84 1.56,12.19 2.42,19.03l1.51 23.6 -137.47 7.06c-4.84,-38.07 -20.23,-131.83 -46.16,-281.29 -11.12,-64.06 -19.72,-120 -25.79,-167.84 3.01,-15.26 13.19,-24.98 30.5,-29.17 -11.96,-0.46 -22.96,-5.01 -32.98,-13.65 -4.46,-35.15 -7.75,-88.3 -9.84,-159.45 -2.1,-71.16 -5.45,-124.79 -10.03,-160.9l109.62 -15.43 7.59 36.24 49.67 -65.84c13.2,10.24 48.02,30.61 104.47,61.13 25.55,13.61 45.45,25.95 59.77,37.04 2.31,2.67 3.91,7.44 4.77,14.26 1.38,10.75 -0.68,21.92 -6.15,33.52 13.79,-0.76 28.01,-2.07 42.66,-3.93 4.77,6.33 7.78,14.39 9.02,24.15 1.86,14.65 11.47,117.57 28.83,308.79 4.99,54.91 11.77,116.06 20.33,183.41 -3.42,4.4 -11.32,20.28 -23.71,47.64 -8.63,17.97 -17.63,33 -27,45.1 -5.6,2.7 -9.87,4.23 -12.8,4.61 -11.73,1.48 -21.85,-0.21 -30.42,-5.07 8.08,8.9 12.08,20.78 11.98,35.67 -3.28,5.39 -12.41,15.48 -27.4,30.27 -19.24,20.3 -34.1,36.07 -44.57,47.33l-26.78 -23.38zm6.23 -442.7c1.94,-8.18 6.86,-16.25 14.79,-24.19 3.53,-3.44 7.18,-5.88 10.96,-7.36 -10.13,-1.68 -19.6,-5.94 -28.4,-12.75 -1.49,-11.72 -1.79,-41.44 -0.92,-89.16 0.33,-20.87 -0.44,-38.63 -2.31,-53.26 -42.66,-39.22 -84.24,-73.62 -124.69,-103.19 4.65,13.29 9.85,26.76 15.56,40.42 5.68,13.66 9.28,26.35 10.77,38.06 -3.13,14.29 -13.37,23.52 -30.7,27.72 10.87,-0.39 21.92,4.64 33.17,15.12 4.35,34.17 7.5,86.34 9.48,156.5 1.98,70.19 5.13,122.36 9.47,156.53 3.6,28.3 10.17,60.45 19.7,96.43 9.53,35.99 18.59,68.33 27.2,96.98 17.28,-20.05 32.79,-38.64 46.49,-55.75 13.69,-17.12 27.78,-35.03 42.26,-53.73 -2.11,-16.6 -8.76,-45.5 -19.94,-86.74 -18.7,-69.04 -29.67,-116.25 -32.89,-141.63zm563.2 259.11c2.08,4.88 3.76,12.22 4.98,22.04 1.24,9.81 4.3,14.65 9.24,14.53 5.89,-0.16 15.12,-4.81 27.69,-13.99 21.25,-16.29 36.31,-24.05 45.19,-23.3l-8.37 136.06c-6.89,0.17 -34.47,-0.36 -82.74,-1.61 -48.25,-1.24 -87.64,-1.48 -118.13,-0.7 -26.22,-24.93 -53.9,-48.84 -83.02,-71.73 -23.1,-18.12 -52.68,-40.01 -88.77,-65.67l-5.48 -41.2c4.57,-13.91 15.68,-22.06 33.34,-24.47 -9.84,0.24 -20.31,-4.91 -31.4,-15.45 -0.62,-24.59 0.74,-78.03 4.08,-160.31 3.33,-82.26 4.56,-140.62 3.69,-175.05 -1,-39.34 -3.86,-74.71 -8.59,-106.09 16.21,-21.09 28.16,-34.68 35.88,-40.78 16.38,-14.18 31.51,-19 45.41,-14.44 -0.08,-2.94 -0.16,-5.89 -0.23,-8.84 -8.29,-16.53 -10.51,-26.32 -6.64,-29.36 2.87,-3.03 24.58,-20.81 65.09,-53.33 11.59,-9.15 24.09,-20.29 37.54,-33.43l42.47 44.7 0.62 -33.97 136.05 8.36c0.23,8.86 -0.19,41.1 -1.24,96.74 -1.06,55.64 -1.14,101.18 -0.24,136.58l-112.07 5.79c-0.54,-21.64 -3.1,-44.7 -7.66,-69.2 -5.46,-21.52 -10.44,-43.53 -14.95,-66.07 -16.32,16.17 -33.11,33.81 -50.34,52.96 -17.23,19.14 -32.05,36.74 -44.44,52.8 0.23,8.85 5.23,31.36 15,67.54 4.32,15.64 6.64,28.87 6.91,39.68 -3.67,10.93 -14.84,16.63 -33.53,17.1 8.9,1.75 16.62,5.24 23.15,10.49 6.53,5.25 9.39,11.32 8.58,18.23l95.92 -2.42c0.32,12.79 1.29,31.71 2.9,56.77 1.63,25.06 2.59,43.5 2.89,55.3 -19.69,0.49 -39.58,1.99 -59.69,4.45 -20.13,2.49 -38.47,6.4 -55.07,11.75l-0.89 140.27c14.13,13.44 29.73,27.06 46.81,40.9 17.08,13.85 31.63,24.55 43.63,32.13 5.87,-1.14 13.69,-3.3 23.46,-6.51 18.54,-6.37 30.76,-9.63 36.66,-9.78 7.87,-0.2 13.3,0.65 16.31,2.53zm307.97 46.93c-2.1,4.86 -9.33,8.87 -21.72,12 -12.39,3.13 -18.65,7.65 -18.8,13.56 -0.15,5.9 4.04,15.35 12.57,28.36 15.19,22.04 22.18,37.47 20.98,46.3l-136.97 -13.79c0.98,-38.37 -0.07,-133.38 -3.12,-285.04 -1.31,-65.01 -1.35,-121.61 -0.14,-169.81 5.29,-14.63 16.81,-22.7 34.57,-24.23 -9.82,-1.22 -19.99,-7.39 -30.54,-18.48 0.89,-35.42 5.68,-88.45 14.37,-159.1 8.67,-70.66 13.46,-124.18 14.39,-160.57l110.7 1.31 2.03 36.98 59.04 -57.58c48.21,39.6 96.42,79.23 144.64,118.83 3.83,4.03 5.65,9.98 5.45,17.85 -0.3,11.81 -4.03,23.04 -11.19,33.68 2.88,3.02 7.27,4.61 13.17,4.76 3.93,0.1 10.84,-0.22 20.7,-0.95 7.87,0.19 12.73,2.29 14.61,6.27 -0.98,38.37 -5.86,95.34 -14.66,170.9 -8.81,75.57 -13.68,132.05 -14.63,169.44 -0.65,25.58 2.35,63.06 8.97,112.44 6.63,49.37 9.64,86.37 9.01,110.96 -5.32,15.61 -16.85,24.18 -34.62,25.71 13.73,2.31 23.84,11.42 30.32,27.34l-4.41 57.47 -134.01 -13.72c0.16,-5.91 2.24,-49.41 6.26,-130.52 4.01,-81.1 6.47,-139.36 7.37,-174.78 0.37,-14.76 -3,-36.99 -10.13,-66.7 -7.13,-29.71 -10.51,-51.44 -10.16,-65.22 0.05,-1.97 0.13,-4.91 0.23,-8.85 0.1,-3.93 0.7,-8.6 1.82,-13.98 1.13,-5.38 6.2,-11.41 15.23,-18.07 4.01,-2.86 10.53,-7.61 19.55,-14.28 -1.94,-1.02 -3.87,-2.56 -5.79,-4.57 -15.72,-1.37 -24.04,-3.08 -24.97,-5.07 -3.77,-6.99 -5.51,-15.39 -5.27,-25.22 0.2,-7.87 5.13,-27.44 14.78,-58.7 4.28,-13.66 6.53,-24.92 6.76,-33.78 -18.12,-23.1 -35.79,-44.22 -53.03,-63.35 -17.23,-19.14 -34.96,-38.29 -53.18,-57.46 2.61,13.85 5.7,27.96 9.27,42.31 3.57,14.37 5.21,27.46 4.91,39.25 -5.27,13.65 -16.79,21.24 -34.54,22.76 10.8,1.26 20.96,7.91 30.5,19.97 -0.87,34.43 -5.63,86.48 -14.28,156.14 -8.65,69.68 -13.41,121.73 -14.28,156.16 -0.6,23.61 2.44,59.12 9.11,106.54 6.67,47.4 9.72,82.92 9.13,106.53zm441.44 -571.23c-14.72,-1.12 -27.02,-7.97 -36.93,-20.58 -5.44,-6.33 -8.32,-13.94 -8.62,-22.85 -6.87,-0.53 -23.25,7.11 -49.12,22.91 -10.33,6.13 -19.9,8.86 -28.74,8.18l19.57 -140.62c4.91,0.38 17.52,3.31 37.82,8.8 20.31,5.49 34.87,8.58 43.7,9.25 17.66,1.34 26.98,-4.37 27.95,-17.13 19.63,1.49 70.31,9.79 152.06,24.89 36.01,6.68 66.27,10.96 90.8,12.83l-8.39 110.37 -115.13 -4.31c-2.31,30.42 -2.99,71.81 -2.05,124.19 1.83,105.74 1.52,174.79 -0.94,207.17 -6.03,14.34 -17.95,21.82 -35.76,22.44 11.63,2.88 21.48,9.54 29.57,20.02 -2.69,35.32 -10.15,88.05 -22.39,158.17 -12.24,70.12 -19.74,123.33 -22.5,159.64l-110.49 -6.93c1.11,-14.72 0.19,-35.01 -2.78,-60.9 -6,-50.79 -8.38,-84.52 -7.11,-101.19 5.96,-13.37 17.84,-20.37 35.64,-20.98 -12.6,-2.93 -22.41,-10.09 -29.44,-21.48 1.26,-16.69 11.98,-99.26 32.16,-247.73 6.74,-49.81 11.98,-99.25 15.71,-148.32 0.97,-12.75 0.92,-25.09 -0.15,-37.01 -1.06,-11.92 -2.55,-24.87 -4.44,-38.83zm935.21 684.63c1.03,4.28 -1.36,10.29 -7.2,18.03 -10.03,12.84 -13.93,21.03 -11.72,24.56 8.1,-0.14 16.71,-0.18 25.77,-0.11 -0.66,-10.25 -1.16,-21.21 -1.49,-32.91 -0.33,-11.69 0.5,-21.85 2.5,-30.48 1.99,-8.63 4.37,-14.64 7.18,-18.03 10.63,-6.64 21.21,-8.73 31.76,-6.31 -12.03,-4.79 -20.66,-13.35 -25.89,-25.67 7.74,-33.56 22.83,-83.6 45.24,-150.12 22.43,-66.53 37.52,-116.57 45.27,-150.13 5.31,-23.01 9.44,-58.42 12.39,-106.21 2.95,-47.79 7.08,-83.19 12.39,-106.2 3.02,-4.36 11.08,-7.55 24.18,-9.58 13.09,-2.02 20.18,-5.43 21.29,-10.23 -12.01,-4.8 -19.49,-15.1 -22.4,-30.91 -2.92,-15.83 -1.64,-31.19 3.81,-46.09l131.43 40.95c-8.62,37.38 -26.62,130.68 -53.99,279.9 -11.73,63.93 -23.01,119.41 -33.85,166.38 -8.12,13.28 -21.03,18.88 -38.73,16.81 11.07,4.58 19.8,12.65 26.22,24.24 -6.2,26.85 -18.85,66.34 -37.94,118.48 -19.11,52.14 -31.66,91.15 -37.62,117.05 13.19,-9.07 30.88,-24.43 53.05,-46.08 22.16,-21.65 40.91,-37.26 56.25,-46.85 7.6,-2.28 16.67,-2.21 27.22,0.22 4.79,1.11 11.76,3.74 20.9,7.86 -10.9,-9.6 -18.54,-22.46 -22.89,-38.61 8.85,-38.36 25.49,-95.1 49.9,-170.27 24.41,-75.15 40.93,-131.43 49.57,-168.82 5.3,-23.02 9.2,-44.33 11.72,-63.95 2.52,-19.62 3.99,-36.95 4.43,-52 0.44,-15.04 0.59,-26.62 0.44,-34.73 -0.58,-19.32 0.11,-33.3 2.11,-41.92 2.87,-12.48 8.55,-21.76 17.03,-27.89 3.55,-2.21 8.7,-0.53 15.49,5.09 6.79,5.61 11.62,8.73 14.49,9.4 -1.76,-5.45 -1.99,-11.06 -0.66,-16.81 2.44,-10.55 6.86,-16.59 13.27,-18.15 8.63,2 29.4,8.3 62.29,18.93 7.67,1.77 19.44,5.49 35.3,11.17 -34.6,106.13 -62.29,204.26 -83.09,294.38 -5.76,24.94 -10.34,62.26 -13.72,111.97 -3.4,49.71 -7.87,86.56 -13.4,110.53 -8.33,14.23 -21.34,20.32 -39.05,18.25 12.02,4.79 20.65,13.35 25.88,25.66 -2.65,11.52 -8.44,27.84 -17.36,49.02 -8.93,21.16 -14.72,37.5 -17.38,49 -72.36,37.83 -143.34,78.51 -212.97,122.03l-46.79 -72.92 -8.63 37.41c-6.72,-1.56 -18.92,-3.36 -36.62,-5.43 -17.7,-2.07 -30.87,-4.09 -39.5,-6.09 -23.01,-5.31 -32.97,-14.68 -29.87,-28.09l-68.81 35.61c-39.98,-71.83 -65.75,-117.68 -77.34,-137.51 -20.94,-36.15 -36.95,-63.07 -48.01,-80.77 6.2,-26.85 11.66,-68 16.38,-123.47 4.72,-55.46 10.18,-96.62 16.38,-123.47 8.11,-13.26 21.02,-18.87 38.71,-16.81 -10.31,-3.39 -18.95,-11.94 -25.88,-25.66 7.08,-30.69 19.88,-75.19 38.4,-133.53 33.41,-105.4 54.87,-178.72 64.39,-219.94l111.41 22.68c-2.66,11.51 -4.98,41.27 -6.97,89.28 -0.82,21.01 -2.88,38.72 -6.2,53.1 -8.11,13.28 -21.24,19.85 -39.39,19.7 12.03,4.79 20.88,12.39 26.55,22.79 -6.41,27.81 -27.1,97.76 -62.07,209.86 -15.55,49.94 -27.22,91.68 -34.96,125.24 -1.99,8.62 -4.76,20.62 -8.3,35.96 -3.54,15.34 -5.9,29.95 -7.08,43.81 9.07,13.2 18.59,24.48 28.54,33.86 27.96,27.65 44.03,45.51 48.24,53.54zm735.74 195.97c0.29,5.27 -0.67,12.75 -2.9,22.38 -2.22,9.64 -1.01,15.24 3.66,16.82 5.59,1.89 15.87,0.69 30.82,-3.6 25.56,-7.96 42.37,-10.07 50.45,-6.3l-54.72 124.85c-6.51,-2.21 -32.23,-12.21 -77.12,-30 -44.87,-17.78 -81.77,-31.56 -110.66,-41.34 -16.03,-32.43 -33.78,-64.4 -53.25,-95.93 -15.44,-24.96 -35.68,-55.69 -60.72,-92.22l9.04 -40.56c9.08,-11.49 22.32,-15.31 39.73,-11.5 -9.32,-3.16 -17.38,-11.6 -24.15,-25.31 7.88,-23.31 27.56,-73.01 59.02,-149.1 31.45,-76.1 52.71,-130.46 63.74,-163.08 12.61,-37.28 22.11,-71.47 28.47,-102.56 22.48,-14.22 38.38,-22.86 47.73,-25.92 20.26,-7.69 36.13,-6.99 47.6,2.07 0.95,-2.8 1.89,-5.59 2.84,-8.39 -2.1,-18.36 -0.81,-28.31 3.87,-29.84 3.74,-1.86 30.24,-11.07 79.47,-27.65 14.02,-4.61 29.61,-10.76 46.76,-18.46l24.48 56.58 12.28 -31.68 124.85 54.71c-2.84,8.4 -14.33,38.52 -34.48,90.4 -20.16,51.87 -35.9,94.58 -47.26,128.13l-107.21 -33.14c6.95,-20.51 12.49,-43.05 16.66,-67.61 2.27,-22.08 5.17,-44.48 8.7,-67.18 -20.9,9.56 -42.74,20.34 -65.5,32.38 -22.77,12.04 -42.74,23.46 -59.9,34.27 -2.84,8.39 -5.9,31.24 -9.17,68.58 -1.33,16.17 -3.72,29.39 -7.19,39.63 -7.2,9 -19.65,10.5 -37.37,4.51 7.77,4.7 13.81,10.65 18.13,17.82 4.33,7.18 4.91,13.87 1.78,20.07l90.87 30.75c-4.09,12.12 -9.69,30.21 -16.81,54.31 -7.11,24.07 -12.55,41.72 -16.34,52.9 -18.64,-6.3 -37.83,-11.76 -57.57,-16.37 -19.74,-4.6 -38.31,-7.24 -55.74,-7.94l-49.14 131.4c8.63,17.46 18.59,35.63 29.86,54.51 11.28,18.88 21.24,33.93 29.91,45.18 5.9,0.96 13.99,1.62 24.26,1.98 19.6,0.4 32.19,1.54 37.79,3.43 7.45,2.53 12.27,5.2 14.43,8.02zm427.24 163.88c1.11,2.55 0.51,9.46 -1.82,20.71 -2.32,11.25 -1.19,17.77 3.39,19.58 6.41,2.52 24.3,0.05 53.69,-7.39 11.68,-2.8 21.63,-2.57 29.87,0.68 -3.61,9.15 -13.05,28.43 -28.35,57.83 -15.3,29.4 -26.19,52.34 -32.68,68.81 -11.91,-4.68 -39.66,-17.47 -83.26,-38.36 -43.59,-20.89 -78.19,-36.39 -103.83,-46.5 -26.24,-62.18 -43.54,-102.84 -51.86,-121.99 -12.19,-28.07 -23.08,-51.41 -32.68,-70 6.13,-15.56 12.99,-43.01 20.56,-82.33 7.57,-39.33 15.15,-68.6 22.73,-87.84 11.07,-14.66 25.2,-19.66 42.4,-14.99 -9.7,-4.89 -16.61,-15.55 -20.71,-31.98 18.04,-45.77 47.96,-112.24 89.75,-199.44 41.78,-87.18 71.5,-153.2 89.19,-198.05l107.36 37.57c-4.33,10.99 -11.4,40.99 -21.2,90 -4.3,21.59 -9.13,39.24 -14.55,52.97 -9.44,13.21 -23.93,19.12 -43.5,17.77 10.08,3.96 17.52,13.25 22.34,27.84 -13.36,33.87 -49.95,114.64 -109.81,242.3 -26.4,56.23 -47.36,104.02 -62.87,143.38 13.11,28.44 21.5,46.04 25.2,52.77 8.48,16.05 18.51,32.17 30.11,48.37 8.96,1.42 19.02,2.75 30.17,3.96 11.15,1.23 19.92,3.11 26.34,5.63 2.75,1.08 7.42,3.99 14.02,8.7zm-10151.52 5011.03c-10.84,-0.93 -18.19,-1.74 -22.07,-2.44 -3.86,-0.68 -5.01,0.11 -3.42,2.39 10.9,22.94 21.61,44.1 32.15,63.47 10.54,19.37 21.11,38.5 31.73,57.39 31.97,5.71 112.66,15.62 242.09,29.74 56.87,6.16 104.7,12.7 143.43,19.62 6.26,4.11 10.96,11.44 14.07,22 1.07,5.2 1.18,10.21 0.32,15.05 5.14,-12.08 14.23,-20.94 27.23,-26.61 32.25,9.74 64.5,19.5 96.74,29.26 -8.92,-11.6 -24.16,-27.06 -45.7,-46.4 -21.54,-19.33 -36.68,-35.28 -45.43,-47.84 -2.67,-7.47 -3.04,-16.54 -1.14,-27.2 0.86,-4.84 3.13,-11.93 6.8,-21.27 -9.04,11.38 -21.5,19.65 -37.42,24.81 -34.88,-6.24 -86.58,-18.97 -155.12,-38.2 -68.53,-19.23 -120.23,-31.97 -155.11,-38.2l-87.7 -12.65 -22.06 -2.46 -19.39 -0.46zm630.25 207.02c-10.28,7.15 -16.73,12.5 -19.35,16.02 0.62,2.13 0.84,3.66 0.67,4.62 1.93,0.36 7.03,-0.24 15.3,-1.77 14.53,2.6 19.54,16.5 15.05,41.68 -1.55,8.72 -4.86,21.63 -9.91,38.72 -5.05,17.08 -8.09,28.54 -9.13,34.35 -34.87,-6.22 -88.36,-11.77 -160.46,-16.65 -72.1,-4.89 -126.07,-10.52 -161.91,-16.92 -13.66,-7.44 -19.82,-20.54 -18.48,-39.29 -3.03,11.45 -11.23,20.99 -24.6,28.6 -24.21,-4.33 -60.1,-13.24 -107.67,-26.73 -84.66,-24.11 -143.46,-39.12 -176.4,-44.99 -46.76,-68.33 -99.69,-135.77 -158.79,-202.29l73.34 -66.37c-3.88,-0.69 -9.77,-1.24 -17.7,-1.66 -9.69,-1.73 -15.96,-5.86 -18.79,-12.36 1.38,-7.74 6.55,-28.31 15.51,-61.69 1.39,-7.75 4.52,-19.69 9.4,-35.82 107.73,29.24 207.13,51.99 298.18,68.25 25.19,4.5 62.69,7.2 112.52,8.09 49.8,0.91 86.83,3.51 111.05,7.84 14.62,7.62 21.35,20.31 20.19,38.09 4.18,-12.24 12.29,-21.29 24.33,-27.13 11.62,2.07 28.23,7.04 49.82,14.88 21.58,7.85 38.2,12.82 49.82,14.9 33.97,56.05 55.25,90.84 63.82,104.35 19.55,30.49 42.46,64.57 68.71,102.24l-44.52 31.04zm35.71 -457.95c4.19,3.24 6.27,11.24 6.22,24.01 -0.05,12.77 2.77,19.97 8.45,21.58 5.67,1.62 15.87,-0.09 30.61,-5.12 25.12,-9.23 41.81,-12.16 50.06,-8.79l-47.44 129.23c-36.92,-10.49 -129.2,-33.12 -276.85,-67.89 -63.3,-14.9 -118.12,-28.94 -164.51,-42.12 -12.86,-8.76 -17.8,-21.92 -14.86,-39.51 -3.63,9.21 -12.13,17.54 -25.5,24.99 -34.09,-9.68 -84.26,-27.51 -150.53,-53.5 -66.28,-25.97 -116.93,-43.94 -151.94,-53.88l28.81 -106.89 36.32 7.23 -41.08 -71.5c50.36,-36.85 100.72,-73.69 151.07,-110.54 4.87,-2.7 11.08,-2.99 18.65,-0.84 11.36,3.23 21.31,9.64 29.85,19.21 3.63,-2.04 6.27,-5.89 7.89,-11.56 1.07,-3.78 2.47,-10.56 4.22,-20.28 2.13,-7.58 5.38,-11.78 9.7,-12.59 36.92,10.48 90.89,29.38 161.89,56.71 71.01,27.34 124.49,46.1 160.47,56.32 24.6,6.99 61.65,13.41 111.12,19.28 49.48,5.87 86.07,12.16 109.73,18.88 13.79,9.04 19.22,22.34 16.28,39.91 5.66,-12.71 17,-20.23 34.03,-22.55l54.56 18.57 -46.63 126.38c-5.68,-1.61 -47.3,-14.46 -124.85,-38.52 -77.56,-24.07 -133.37,-40.95 -167.45,-50.62 -14.21,-4.04 -36.58,-6.31 -67.12,-6.79 -30.55,-0.49 -52.45,-2.62 -65.71,-6.39 -1.88,-0.54 -4.72,-1.34 -8.51,-2.42 -3.79,-1.07 -8.15,-2.83 -13.1,-5.24 -4.92,-2.43 -9.49,-8.85 -13.7,-19.25 -1.77,-4.59 -4.75,-12.08 -8.97,-22.49 -1.47,1.63 -3.43,3.12 -5.86,4.47 -5.25,14.88 -8.96,22.53 -11.12,22.92 -7.7,1.92 -16.28,1.52 -25.74,-1.17 -7.58,-2.15 -25.3,-11.79 -53.17,-28.91 -12.19,-7.54 -22.53,-12.53 -31.04,-14.95 -26.89,11.81 -51.73,23.67 -74.56,35.6 -22.82,11.93 -45.79,24.34 -68.88,37.22 14.07,0.92 28.49,1.44 43.3,1.55 14.79,0.11 27.87,1.78 39.23,5 11.92,8.5 16.39,21.54 13.45,39.12 3.9,-10.15 12.87,-18.34 26.91,-24.58 33.14,9.41 82.37,26.97 147.69,52.68 65.33,25.71 114.57,43.27 147.69,52.68 22.71,6.45 57.87,12.34 105.46,17.68 47.58,5.33 82.73,11.22 105.46,17.67zm-466.7 -753.94c-3.73,-1.26 -6.54,2.46 -8.44,11.17 0.91,3.43 1.37,6.69 1.35,9.81 1.57,-1.56 4.39,-5.28 8.46,-11.17 1.89,-5.59 1.44,-8.86 -1.37,-9.81zm66.99 50.71c-11.2,-0.67 -17.66,-1.55 -19.36,-2.65 -1.7,-1.09 -2.09,0.07 -1.18,3.5 11.95,41.44 26.24,82.11 42.86,122.02l143.99 53.4 38.76 -109.99 107.22 33.15c-11.99,35.42 -19.94,72.74 -23.84,111.92 12.74,2.24 25.73,4.55 38.94,6.95 13.21,2.39 24.95,5.31 35.21,8.78 13.03,4.42 23.36,10 30.96,16.72 7.58,6.73 11.36,14.75 11.32,24.09 5.6,-1.22 10.9,-3.06 15.9,-5.53 13.12,-11.15 22.31,-15.3 27.6,-12.47 12.1,4.09 31.99,12.9 59.62,26.4 49.05,23.87 81.98,38.65 98.75,44.32l-39.22 106.71c-28.9,-9.78 -68.36,-20.52 -118.41,-32.28 -100.1,-23.47 -165.05,-40.26 -194.88,-50.35 -27.91,-21.9 -53.82,-38.21 -77.74,-48.89 -23.91,-10.69 -59.17,-23.91 -105.78,-39.69 -21.74,-6.32 -43.11,-13.03 -64.09,-20.13 -20.96,-7.09 -42.17,-14.27 -63.61,-21.52 -40.71,-82.34 -83,-156.89 -126.88,-223.69l44 -28.73c-5.59,-1.9 -6.82,-7.5 -3.65,-16.83 1.57,-4.66 6.6,-14.9 15.07,-30.74l35.38 -81.52c0.93,0.31 28.41,11.17 82.46,32.59 54.05,21.39 99.25,38.25 135.6,50.54l-32.68 105.81 -64.34 -17.09 -14.92 -1.92 -13.06 -2.88zm672.85 -274.76c5.3,-0.02 12.71,1.32 22.23,4.01 9.52,2.7 15.16,1.76 16.97,-2.83 2.16,-5.48 1.48,-15.81 -2.07,-30.95 -6.7,-25.93 -7.98,-42.82 -3.81,-50.69l122 60.79c-2.53,6.41 -13.78,31.59 -33.76,75.54 -19.97,43.95 -35.56,80.13 -46.74,108.49 -33.19,14.43 -66,30.58 -98.44,48.47 -25.69,14.18 -57.39,32.89 -95.11,56.1l-40.07 -11.04c-11.01,-9.62 -14.19,-23.04 -9.52,-40.24 -3.61,9.15 -12.44,16.79 -26.47,22.88 -22.89,-9.03 -71.56,-31.12 -146.01,-66.29 -74.45,-35.18 -127.7,-59.09 -159.74,-71.72 -36.62,-14.43 -70.3,-25.59 -101.03,-33.48 -13.09,-23.15 -20.93,-39.47 -23.54,-48.95 -6.68,-20.61 -5.21,-36.43 4.43,-47.44 -2.76,-1.09 -5.5,-2.17 -8.25,-3.25 -18.44,1.18 -28.32,-0.59 -29.62,-5.33 -1.67,-3.84 -9.57,-30.75 -23.7,-80.74 -3.91,-14.24 -9.28,-30.11 -16.13,-47.62l57.72 -21.67 -31.03 -13.82 60.78 -122c8.25,3.25 37.78,16.21 88.59,38.89 50.82,22.69 92.7,40.53 125.67,53.52l-38.4 105.44c-20.14,-7.94 -42.37,-14.59 -66.71,-19.95 -21.95,-3.36 -44.17,-7.37 -66.66,-12.01 8.52,21.34 18.21,43.67 29.1,67.01 10.91,23.33 21.34,43.85 31.29,61.52 8.24,3.25 30.91,7.43 68.03,12.55 16.09,2.11 29.17,5.15 39.25,9.13 8.62,7.63 9.51,20.14 2.65,37.54 5.08,-7.53 11.31,-13.26 18.68,-17.23 7.39,-3.97 14.1,-4.22 20.14,-0.78l35.2 -89.26c11.9,4.69 29.71,11.18 53.4,19.47 23.71,8.29 41.06,14.59 52.05,18.93 -7.23,18.31 -13.61,37.21 -19.19,56.69 -5.57,19.5 -9.14,37.92 -10.69,55.29l128.83 55.55c17.87,-7.76 36.5,-16.81 55.92,-27.13 19.39,-10.33 34.93,-19.55 46.59,-27.65 1.25,-5.85 2.32,-13.89 3.17,-24.13 1.36,-19.56 3.13,-32.09 5.3,-37.58 2.88,-7.32 5.78,-12 8.7,-14.03zm266.49 -234.08c-1.32,0.44 -8.35,-0.41 -21.09,-2.52 -12.75,-2.09 -19.34,-2.71 -19.79,-1.84 0.42,1.33 0.85,2.66 1.28,3.98 5.25,2.69 10.94,5.61 17.07,8.75l20.35 12.07 -71.77 117.47c-34.16,-17.49 -120.24,-57.71 -258.26,-120.66 -59.15,-26.98 -110.18,-51.47 -153.11,-73.44 -10.89,-11.1 -13.17,-24.99 -6.85,-41.65 -7.13,9.61 -17.1,16.12 -29.9,19.51 -31.53,-16.14 -77.25,-43.43 -137.16,-81.87 -59.93,-38.42 -106.1,-65.93 -138.5,-82.53l49.15 -99.2 34.19 14.19 -26.31 -78.16c15.9,-5.11 52.37,-22.36 109.43,-51.74 25.65,-13.39 47.09,-22.87 64.3,-28.42 3.52,-0.41 8.36,0.96 14.48,4.1 9.64,4.93 17.71,12.93 24.2,23.99 7.14,-11.81 14.09,-24.28 20.83,-37.42 7.91,-0.36 16.27,1.7 25.02,6.18 13.14,6.73 103.53,56.9 271.17,150.5 48.16,26.87 102.45,55.78 162.88,86.74 1.71,5.29 10.36,20.78 25.96,46.46 9.95,17.26 17.28,33.16 21.97,47.73 -0.93,6.15 -2.07,10.54 -3.42,13.18 -5.38,10.51 -12.5,17.92 -21.34,22.23 11.9,-1.63 23.96,1.77 36.2,10.26 2.6,5.75 5.76,18.98 9.52,39.69 5.9,27.34 10.54,48.52 13.91,63.51l-34.41 8.91zm-361.93 -255.01c-5.65,-6.22 -9.53,-14.84 -11.62,-25.86 -0.84,-4.85 -0.8,-9.25 0.12,-13.21 -7.11,7.42 -15.96,12.84 -26.56,16.25 -10.51,-5.38 -35.22,-21.9 -74.12,-49.56 -17.04,-12.05 -32.14,-21.44 -45.27,-28.16 -56.45,13.09 -108.32,27.99 -155.57,44.69 13.62,3.65 27.66,6.99 42.15,9.98 14.5,3.01 27.01,7.2 37.52,12.58 10.02,10.66 11.85,24.32 5.54,40.99 5.81,-9.19 16.21,-15.47 31.2,-18.85 30.66,15.7 75.5,42.54 134.55,80.52 59.05,37.98 103.9,64.81 134.55,80.52 25.41,13.01 55.65,25.73 90.73,38.17 35.09,12.44 66.89,23.21 95.4,32.29 -6.8,-25.6 -13.38,-48.87 -19.78,-69.84 -6.4,-20.97 -13.24,-42.71 -20.5,-65.22 -14.88,-7.63 -42.5,-18.46 -82.86,-32.5 -67.54,-23.53 -112.71,-41.13 -135.48,-52.79zm520.26 -319.04c5.24,0.74 12.37,3.14 21.39,7.19 9.03,4.05 14.76,3.95 17.21,-0.32 2.94,-5.12 3.77,-15.43 2.46,-30.93 -2.85,-26.62 -1.64,-43.52 3.62,-50.7l111.84 77.93c-3.43,5.96 -18.23,29.24 -44.41,69.81 -26.17,40.58 -46.85,74.08 -62.05,100.53 -34.93,9.42 -69.76,20.62 -104.46,33.58 -27.48,10.3 -61.58,24.19 -102.26,41.65l-38.03 -16.76c-9.51,-11.13 -10.68,-24.86 -3.56,-41.2 -4.91,8.54 -14.75,14.78 -29.52,18.78 -21.33,-12.27 -66.26,-41.22 -134.79,-86.87 -68.53,-45.65 -117.73,-77.06 -147.59,-94.22 -34.12,-19.62 -65.8,-35.57 -95.07,-47.86 -9.57,-24.81 -14.96,-42.09 -16.16,-51.85 -3.6,-21.38 0.17,-36.81 11.29,-46.29 -2.55,-1.47 -5.1,-2.94 -7.67,-4.42 -18.42,-1.51 -27.93,-4.7 -28.53,-9.6 -1.09,-4.03 -4.98,-31.81 -11.68,-83.32 -1.79,-14.65 -4.8,-31.14 -9.01,-49.47l60.26 -13.01 -28.7 -18.2 77.93 -111.84c7.68,4.42 35,21.55 81.97,51.39 46.96,29.84 85.81,53.6 116.52,71.26l-53.36 98.72c-18.76,-10.79 -39.79,-20.61 -63.08,-29.46 -21.21,-6.53 -42.62,-13.73 -64.2,-21.6 5.32,22.35 11.65,45.86 19.03,70.54 7.38,24.68 14.71,46.48 21.98,65.42 7.68,4.41 29.51,11.85 65.48,22.32 15.62,4.44 28.1,9.35 37.49,14.75 7.42,8.82 6.48,21.32 -2.84,37.54 6.12,-6.71 13.12,-11.48 21,-14.32 7.88,-2.85 14.56,-2.13 20.03,2.16l47.83 -83.18c11.09,6.37 27.76,15.4 50.01,27.05 22.23,11.65 38.48,20.42 48.72,26.3 -9.81,17.06 -18.9,34.84 -27.24,53.3 -8.35,18.47 -14.57,36.19 -18.64,53.13l119.35 73.74c18.82,-5.07 38.57,-11.31 59.28,-18.7 20.71,-7.39 37.41,-14.24 50.12,-20.55 2.09,-5.61 4.32,-13.42 6.66,-23.41 4.2,-19.15 7.77,-31.29 10.71,-36.41 3.93,-6.82 7.48,-11.02 10.67,-12.6zm204.17 -235.34c3.07,4.31 2.74,12.57 -1,24.78 -3.73,12.21 -3.12,19.92 1.85,23.11 4.97,3.18 15.23,4.5 30.78,3.95 26.72,-1.57 43.54,0.44 50.47,6.05l-82.78 109.99c-32.31,-20.72 -114.11,-69.06 -245.4,-145.05 -56.27,-32.57 -104.7,-61.86 -145.29,-87.88 -9.78,-12.11 -10.7,-26.15 -2.81,-42.12 -6.13,7.76 -16.68,13.27 -31.63,16.53 -29.82,-19.11 -72.7,-50.7 -128.63,-94.73 -55.92,-44.04 -99.22,-75.88 -129.86,-95.53l58.5 -93.99 32.66 17.42 -19.89 -81.11c58.34,-19.87 116.26,-40.03 173.75,-60.45 8.17,-1.77 15.97,-0.27 23.42,4.5 9.95,6.38 16.78,14.85 20.52,25.43 5.44,-1.18 12.16,-7.11 20.15,-17.77 8,-10.64 14.61,-15.47 19.81,-14.47 14.91,9.56 35.54,25.7 61.87,48.44 26.35,22.72 46.55,38.6 60.64,47.62l23.66 132.66 129.27 -29.34c15.75,10.08 38.19,21.55 67.36,34.41 58.33,25.7 95.36,43.59 111.1,53.69 11.42,13.17 13.19,27.74 5.29,43.72 6.67,-8.59 18.46,-13.3 35.37,-14.15l64.71 46.75 -79.15 107.05c-8.29,-5.31 -55.27,-37.77 -140.97,-97.38 -20.99,-14.63 -49.32,-33.38 -84.93,-56.21l-157.63 46.23c27.34,17.52 70.47,40.5 129.39,68.92 58.92,28.43 102.05,51.4 129.4,68.93zm-321.24 -218.2c2.42,-1.97 8.5,-5.07 18.26,-9.34 2.72,-0.6 6.65,-2.17 11.79,-4.73 -1.36,0.3 -3.14,0.33 -5.32,0.1 -3.25,1.43 -6.65,2.17 -10.2,2.23 -10.93,-1.17 -20.55,-4.4 -28.83,-9.72 -2.08,-9.51 -3.85,-24.08 -5.3,-43.71 -0.71,-9.81 -1.79,-24.53 -3.24,-44.16l-50.69 -41.27c-33.75,5.25 -60.82,10.09 -81.22,14.56 -26.36,6.48 -52.87,12.28 -79.53,17.4 13.2,4.95 26.86,9.61 41,14 14.13,4.39 26.17,9.77 36.11,16.14 8.94,11.58 9.46,25.36 1.56,41.33 6.68,-8.58 17.62,-13.83 32.88,-15.75 9.94,6.39 25.04,18.39 45.28,36.04 36.04,31.3 60.29,50.92 72.71,58.89 -4.33,-13.3 -2.75,-23.98 4.74,-32.01zm111.59 -668.22c-3.87,-3.04 -7.51,-1.21 -10.9,5.51 -3.4,6.71 -5.02,10.75 -4.85,12.14 2.76,-0.33 6.66,-2.9 11.69,-7.7 5.03,-4.82 6.38,-8.13 4.06,-9.95zm48.83 74.03c-12.06,-6.96 -20.39,-12.27 -25.04,-15.91 0.33,2.75 0.59,4.83 0.74,6.21 -2.21,45.81 -2,88.53 0.65,128.16l95.92 81.01 19.73 15.49 13.67 -17.4 23.06 -26.94 26.69 -31.58c3.65,-4.65 9.21,-10.91 16.66,-18.82 -4.63,-3.65 -9.66,-7.6 -15.07,-11.85 -10.84,-8.52 -27.39,-20.9 -49.66,-37.14 -22.29,-16.25 -38.44,-28.33 -48.5,-36.24l-17.16 -11.61 -15.74 -8.62 -13.68 -8.88 -12.27 -5.88zm259.87 194.84c-3.65,4.64 -9.95,11.88 -18.94,21.72 -8.98,9.83 -15.3,17.07 -18.94,21.72 -10.34,13.16 -16.96,25.17 -19.85,36.02 -2.91,10.86 -0.2,18.94 8.15,24.25 9.12,5.91 17.81,11.18 26.08,15.79 8.26,4.63 17.02,10.57 26.32,17.87 10.83,8.51 18.46,16.7 22.92,24.58 4.45,7.88 5.48,16.51 3.1,25.92 5.69,0.7 11.3,0.74 16.83,0.08 15.47,-5.37 24.76,-6.83 27.85,-4.4 17.02,13.38 38.8,34.24 65.32,62.59 26.53,28.36 47.14,48.32 61.85,59.87l-71.63 86.38c-27.87,-21.89 -72.46,-51.93 -133.81,-90.12 -61.34,-38.2 -106.32,-68.55 -134.95,-91.05 -17.29,-27.36 -36.87,-51.81 -58.74,-73.37 -21.85,-21.56 -48.25,-44.5 -79.2,-68.82 -3.87,-3.04 -18.48,-13.9 -43.86,-32.58 -25.36,-18.68 -48.1,-35.93 -68.21,-51.73 -9.17,-82.3 -24.2,-166.7 -45.07,-253.19l49.9 -13.35c-4.64,-3.64 -4.23,-8.95 1.25,-15.91 9.44,-8.84 18.89,-17.69 28.35,-26.54l58.46 -64.81c30.16,23.71 106.94,79.68 230.36,167.89 52.88,37.81 98.29,71.61 136.2,101.4 8.56,12.99 8.15,27.06 -1.25,42.2 8.85,-8.06 19.87,-12.54 33.08,-13.43 27.85,21.89 67.5,57.43 118.95,106.63 51.46,49.19 91.49,85.04 120.12,107.53l-67.25 87.95c-45.09,-25.43 -90.28,-51.54 -135.54,-78.35 -5.4,-4.26 -8.31,-10.92 -8.69,-19.98 -0.38,-9.06 1.77,-17.38 6.47,-24.95 -9.46,8.84 -20.87,13.01 -34.24,12.5 -7.74,-6.07 -23.68,-22.03 -47.79,-47.87 -24.13,-25.84 -41.98,-43.32 -53.6,-52.44zm-27.9 -478.73c-9.67,11.16 -22.5,16.95 -38.51,17.41 -8.32,0.6 -16.16,-1.64 -23.5,-6.69 -4.51,5.21 -8.12,22.91 -10.84,53.1 -1.24,11.95 -4.76,21.27 -10.55,27.96l-101.31 -99.46c3.22,-3.73 13.09,-12.1 29.59,-25.15 16.51,-13.04 27.65,-22.9 33.45,-29.6 11.61,-13.39 12.56,-24.26 2.89,-32.65 12.89,-14.87 49.74,-50.65 110.55,-107.33 26.82,-24.94 48.29,-46.7 64.39,-65.3l83.67 72.47 -72.03 89.93c23.05,19.97 55.9,45.17 98.54,75.6 86.04,61.5 141.32,102.88 165.86,124.14 7.94,13.38 6.84,27.41 -3.26,42.1 9.23,-7.65 20.44,-11.59 33.68,-11.84 26.78,23.19 64.69,60.59 113.73,112.18 49.04,51.6 87.32,89.31 114.84,113.16l-71.37 84.63c-11.16,-9.67 -28.01,-21.01 -50.56,-34.05 -44.39,-25.42 -72.9,-43.6 -85.54,-54.55 -7.19,-12.74 -5.74,-26.45 4.39,-41.13 -9.88,8.38 -21.48,12.01 -34.81,10.87 -12.64,-10.95 -72.6,-68.74 -179.85,-173.36 -36,-35.1 -72.59,-68.74 -109.78,-100.96 -9.67,-8.38 -19.61,-15.68 -29.83,-21.93 -10.21,-6.25 -21.49,-12.75 -33.84,-19.55zm303.63 -333.13c-8.08,11.34 -21.16,17.21 -39.25,17.64 -10.45,-0.44 -18.85,-2.33 -25.19,-5.67 -4.76,5 -9.22,22.5 -13.37,52.53 -1.8,11.88 -5.76,21.02 -11.87,27.42l-96.44 -104.18c27.16,-28.49 69.33,-69.86 126.49,-124.12 57.17,-54.26 99.34,-95.63 126.5,-124.12l80.12 76.37 -19.36 20.31c-19.01,19.94 -37.29,41.26 -54.85,63.95 21.37,20.37 79.62,69.79 174.75,148.25 41.9,34.51 76.37,64.64 103.44,90.45 2.91,5.5 2.89,11.94 -0.06,19.32 -2.96,7.38 -6.82,12.87 -11.61,16.46 12.37,-5.86 25.92,-7.23 40.62,-4.09 11.39,10.85 35.04,39.52 70.95,85.99 15.8,20.51 29.76,36.53 41.86,48.07l80.52 -82.32 79.05 75.38c-19.7,20.66 -46.03,54 -79.05,100.02 -33.01,46.04 -59.36,79.37 -79.04,100.02 -4.12,2.88 -13.01,2.23 -26.67,-1.96 -13.68,-4.21 -22.55,-4.17 -26.62,0.11 7.9,10.24 9.06,22.58 3.49,36.98 -5.58,14.4 -14.81,28.36 -27.71,41.9l-96.44 -104.19 89.87 -83.58c-7.1,-5.39 -18.73,-12.08 -34.93,-20.04 -16.2,-7.97 -27.5,-15.01 -33.92,-21.12 -8.73,-16.5 -10.9,-34.19 -6.48,-53.09 -3.23,10.52 -11.07,17.32 -23.52,20.39 -19.94,-19 -67.45,-70.42 -142.54,-154.23 -32.89,-36.81 -61.8,-67.09 -86.73,-90.85 -22.79,-21.73 -50.12,-44.4 -82.01,-68zm408.14 -407.8c-8.18,-7.16 -13.62,-12.16 -16.34,-15.01 -2.72,-2.85 -4.1,-2.88 -4.18,-0.1 -4.78,24.95 -8.64,48.34 -11.59,70.2 -2.96,21.85 -5.74,43.53 -8.34,65.04 22.41,23.51 81.63,79.21 177.67,167.11 42.24,38.59 76.93,72.14 104.08,100.62 2.63,7.03 2.07,15.71 -1.66,26.06 -2.2,4.83 -5.08,8.93 -8.65,12.33 11.3,-6.7 23.87,-8.48 37.71,-5.37 20.25,26.93 40.47,53.86 60.72,80.79 -0.35,-14.62 -3.48,-36.1 -9.43,-64.44 -5.94,-28.31 -8.72,-50.13 -8.36,-65.44 2.28,-7.6 7.33,-15.13 15.16,-22.6 3.56,-3.39 9.58,-7.77 18.07,-13.15 -14.02,3.85 -28.96,3.14 -44.85,-2.11 -24.45,-25.64 -58.62,-66.48 -102.52,-122.51 -43.91,-56.03 -78.07,-96.87 -102.52,-122.5l-63.25 -62.07 -16.34 -15.01 -15.38 -11.84zm385.93 539.56c-12.52,-0.3 -20.88,0.2 -25.08,1.49 -0.75,2.07 -1.47,3.44 -2.19,4.13 1.36,1.41 5.82,3.96 13.39,7.62 10.19,10.68 6.01,24.85 -12.5,42.5 -6.41,6.11 -16.71,14.57 -30.89,25.38 -14.17,10.79 -23.4,18.22 -27.67,22.31 -24.44,-25.65 -64.29,-61.74 -119.57,-108.31 -55.26,-46.56 -95.46,-83.01 -120.58,-109.37 -6.62,-14.07 -3.85,-28.27 8.33,-42.61 -9.23,7.44 -21.48,10.29 -36.75,8.52 -16.97,-17.79 -40.65,-46.2 -71.04,-85.21 -54.03,-69.49 -92.58,-116.35 -115.66,-140.56 2.67,-82.76 -0.16,-168.45 -8.49,-257.03l98.38 -10.17c-2.72,-2.86 -7.15,-6.79 -13.28,-11.8 -6.79,-7.14 -9.42,-14.17 -7.85,-21.08 5.68,-5.43 22.02,-18.96 48.98,-40.59 5.7,-5.43 15.28,-13.21 28.76,-23.32 69.6,87.26 136.31,164.37 200.13,231.32 17.66,18.53 46.31,42.86 85.97,73.04 39.64,30.17 67.95,54.17 84.93,71.97 7.3,14.79 5.23,29.01 -6.23,42.66 10.61,-7.4 22.5,-9.9 35.66,-7.5 8.15,8.55 18.61,22.37 31.38,41.46 12.76,19.1 23.22,32.93 31.37,41.47 -5.74,65.28 -9.13,105.92 -10.21,121.91 -2.25,36.13 -3.93,77.16 -5.02,123.06l-54.27 -1.29zm303.3 -348.62c1.49,5.08 -1.53,12.78 -9.07,23.09 -7.54,10.3 -9.5,17.78 -5.84,22.42 3.64,4.64 12.9,9.26 27.77,13.85 25.75,7.29 40.98,14.72 45.68,22.28l-114.32 76.7c-23.71,-30.17 -85.09,-102.7 -184.14,-217.6 -42.45,-49.24 -78.57,-92.82 -108.36,-130.73 -5.26,-14.64 -1.53,-28.2 11.18,-40.7 -8.34,5.3 -20.11,7.05 -35.31,5.23 -21.89,-27.86 -52.01,-71.77 -90.38,-131.73 -38.36,-59.96 -68.78,-104.26 -91.28,-132.88l86.12 -69.56 25.14 27.19 8.77 -82c62.4,-0.22 124.79,-0.44 187.2,-0.68 5.52,0.67 10.72,4.09 15.58,10.28 7.3,9.29 11.57,20.31 12.86,33.08 4.14,0.49 8.53,-1.08 13.18,-4.73 3.08,-2.42 8.2,-7.07 15.33,-13.93 6.19,-4.87 11.27,-6.36 15.26,-4.47 23.7,30.17 56.26,77.18 97.66,141 41.4,63.84 73.65,110.46 96.76,139.86 15.81,20.11 42.02,47.08 78.6,80.9 36.58,33.81 62.49,60.4 77.69,79.74 5.85,15.42 2.43,29.37 -10.28,41.86 12.04,-6.95 25.65,-6.37 40.79,1.75l33.24 47.08 -111.99 74.87c-3.65,-4.64 -29.77,-39.48 -78.39,-104.53 -48.62,-65.05 -83.87,-111.49 -105.76,-139.34 -9.12,-11.61 -25.9,-26.6 -50.32,-44.94 -24.43,-18.35 -40.9,-32.93 -49.41,-43.76 -1.22,-1.55 -3.04,-3.87 -5.48,-6.97 -2.43,-3.09 -4.93,-7.07 -7.51,-11.94 -2.56,-4.85 -2.49,-12.74 0.21,-23.63 1.27,-4.75 3.26,-12.56 5.97,-23.46 -2.16,0.45 -4.61,0.5 -7.38,0.17 -12.99,8.96 -20.48,12.96 -22.47,12.02 -7.34,-2.98 -14.06,-8.35 -20.13,-16.08 -4.87,-6.18 -13.55,-24.41 -26.04,-54.63 -5.42,-13.26 -10.86,-23.37 -16.33,-30.34 -28.69,-6.24 -55.77,-11.24 -81.25,-15 -25.49,-3.76 -51.36,-7.21 -77.6,-10.35 10.84,9.01 22.2,17.9 34.11,26.69 11.91,8.78 21.52,17.82 28.82,27.1 4.64,13.87 0.6,27.06 -12.1,39.55 9.12,-5.91 21.19,-7.27 36.23,-4.06 21.27,27.08 50.78,70.2 88.54,129.39 37.76,59.2 67.29,102.33 88.56,129.41 14.59,18.57 39.57,43.99 74.95,76.26 35.36,32.27 60.35,57.69 74.94,76.27z"/>
 </g>
</svg>
